<?xml version="1.0" encoding="UTF-8" standalone="no"?>
<!-- Created with Inkscape (http://www.inkscape.org/) -->

<svg
   xmlns:dc="http://purl.org/dc/elements/1.1/"
   xmlns:cc="http://creativecommons.org/ns#"
   xmlns:rdf="http://www.w3.org/1999/02/22-rdf-syntax-ns#"
   xmlns:svg="http://www.w3.org/2000/svg"
   xmlns="http://www.w3.org/2000/svg"
   xmlns:sodipodi="http://sodipodi.sourceforge.net/DTD/sodipodi-0.dtd"
   xmlns:inkscape="http://www.inkscape.org/namespaces/inkscape"
   width="210mm"
   height="297mm"
   viewBox="0 0 210 297"
   version="1.1"
   id="svg1013"
   inkscape:version="0.92.5 (2060ec1f9f, 2020-04-08)"
   sodipodi:docname="chinese_zodiac_signs2.svg">
  <defs
     id="defs1007" />
  <sodipodi:namedview
     id="base"
     pagecolor="#ffffff"
     bordercolor="#666666"
     borderopacity="1.0"
     inkscape:pageopacity="0.0"
     inkscape:pageshadow="2"
     inkscape:zoom="0.35"
     inkscape:cx="-112.85714"
     inkscape:cy="560"
     inkscape:document-units="mm"
     inkscape:current-layer="layer1"
     showgrid="false"
     inkscape:window-width="1920"
     inkscape:window-height="1016"
     inkscape:window-x="0"
     inkscape:window-y="27"
     inkscape:window-maximized="1" />
  <metadata
     id="metadata1010">
    <rdf:RDF>
      <cc:Work
         rdf:about="">
        <dc:format>image/svg+xml</dc:format>
        <dc:type
           rdf:resource="http://purl.org/dc/dcmitype/StillImage" />
        <dc:title></dc:title>
      </cc:Work>
    </rdf:RDF>
  </metadata>
  <g
     inkscape:label="Layer 1"
     inkscape:groupmode="layer"
     id="layer1">
    <path
       style="fill:#000000;stroke-width:0.21621385"
       d="m 31.392815,233.02611 c -0.66443,-0.8447 -0.432022,-1.40911 1.638417,-3.97893 2.406704,-2.98717 3.449286,-6.32362 3.27042,-10.46586 -0.131403,-3.04303 -0.543919,-4.14211 -2.813359,-7.4956 -2.020273,-2.98531 -2.273829,-3.90095 -1.423784,-5.14168 1.700458,-2.48201 6.758939,-2.43965 11.370558,0.0952 4.050147,2.22624 8.325657,6.49504 11.73638,11.71798 1.732737,2.65338 3.847337,6.78808 4.020834,7.86196 0.15958,0.98771 0.548169,0.83568 -7.703484,3.01398 -3.626991,0.95746 -9.276616,2.46683 -12.554718,3.35414 -3.27811,0.88731 -6.21426,1.61329 -6.524775,1.61329 -0.353604,0 -0.733465,-0.2147 -1.016489,-0.57449 z m 72.638835,-0.28746 c -0.23624,-0.23625 -1.10055,-1.76867 -1.9207,-3.40538 -1.66921,-3.33113 -2.207783,-3.98768 -3.919968,-4.77858 -1.13423,-0.52394 -1.433917,-0.55632 -6.486416,-0.70085 -6.148869,-0.17591 -6.815194,-0.32343 -8.915353,-1.97383 -0.915069,-0.71911 -2.808105,-3.47118 -3.851791,-5.5997 -1.341844,-2.7366 -0.521512,-3.54552 6.449681,-6.35996 4.663625,-1.88283 4.829816,-2.0149 6.7702,-5.38065 1.18653,-2.05815 2.834623,-3.69499 4.597016,-4.56564 1.911807,-0.94448 4.931381,-1.79672 7.001691,-1.97614 l 1.56508,-0.13563 1.22526,-1.64414 c 1.96193,-2.63264 4.92236,-5.44777 6.59478,-6.2711 1.97192,-0.97078 3.68416,-1.12392 4.70651,-0.42095 1.33178,0.91575 1.96552,2.85075 1.96386,5.99633 -8.2e-4,1.8018 -0.45372,4.94095 -0.94951,6.58321 l -0.31554,1.04522 0.91913,1.22503 c 1.92447,2.56495 9.94862,15.09031 10.03626,15.66619 0.1852,1.21693 -0.87954,1.86638 -12.59289,7.68114 -11.5099,5.71377 -11.99141,5.90132 -12.8773,5.01543 z m -3.62788,-22.4714 c 0.62115,-0.555 0.7061,-0.76252 0.7061,-1.7248 0,-0.90723 -0.1023,-1.19619 -0.5995,-1.69339 -0.49734,-0.49734 -0.786077,-0.59951 -1.69438,-0.59951 -0.926656,0 -1.173561,0.0915 -1.607054,0.59544 -1.031125,1.19876 -0.874675,3.0855 0.309199,3.72891 0.965922,0.52497 2.088385,0.40569 2.885635,-0.30665 z m 64.59729,20.07951 c -3.98344,-0.49209 -8.65421,-2.41764 -11.33765,-4.67402 -1.66473,-1.39979 -3.37153,-3.71652 -3.95573,-5.36928 -0.51475,-1.4563 -0.5189,-7.25599 -0.007,-8.81072 l 0.33861,-1.02701 h -0.60822 c -0.86495,0 -3.06241,-0.71893 -4.1555,-1.35952 -1.3412,-0.786 -3.10845,-2.73759 -3.41968,-3.77639 -0.3608,-1.20423 -0.13413,-2.14217 0.90694,-3.7529 1.67456,-2.59086 5.33375,-5.69263 7.78279,-6.59719 1.50387,-0.55546 3.57415,-0.50664 4.74293,0.11185 l 0.97807,0.51756 1.05482,-0.80516 c 4.3113,-3.2909 10.80191,-4.4483 16.97229,-3.02651 1.70182,0.39214 4.91133,1.9181 6.34814,3.01822 l 1.04706,0.8017 1.16817,-0.59104 c 1.04595,-0.5292 1.31161,-0.57567 2.53939,-0.44419 0.75418,0.0807 1.87942,0.3823 2.50055,0.67007 3.00498,1.39222 6.43041,4.4698 7.76776,6.97893 1.14321,2.14487 0.86018,3.5294 -1.11996,5.47854 -1.33903,1.31808 -3.7965,2.54451 -5.43804,2.71394 -0.65327,0.0674 -1.18775,0.18194 -1.18773,0.25449 2e-5,0.0726 0.1557,0.91028 0.34595,1.86163 0.19153,0.95769 0.34981,2.83948 0.35464,4.21616 0.007,2.18548 -0.0583,2.6495 -0.54519,3.83327 -1.93112,4.6956 -6.87817,8.19695 -13.377,9.46775 -2.15438,0.42127 -7.43039,0.58984 -9.6971,0.30982 z m 8.45688,-7.12807 c 2.83224,-0.53467 4.41173,-2.54433 4.40337,-5.60262 -0.005,-1.93792 -0.54782,-3.34082 -1.78995,-4.62852 -1.61799,-1.67733 -3.67185,-2.35409 -7.07034,-2.32973 -5.09799,0.0365 -7.87027,1.83996 -8.65042,5.62721 -0.66608,3.23357 0.89221,6.08327 3.74681,6.85191 1.24438,0.33506 7.71915,0.39161 9.36053,0.0817 z m -8.4719,-3.94225 c -0.5162,-0.82233 -0.46554,-2.36883 0.096,-2.93036 0.53185,-0.53185 1.8399,-0.44503 2.32524,0.15434 0.95679,1.18158 0.0669,3.47871 -1.34753,3.47871 -0.47909,0 -0.73965,-0.17053 -1.0737,-0.70269 z m 6.23116,0.46915 c -0.46206,-0.26912 -1.027,-1.31852 -1.027,-1.90768 0,-1.27065 1.13941,-2.18057 2.21734,-1.77074 1.0171,0.3867 1.34743,1.7981 0.70954,3.03165 -0.44253,0.85575 -1.13586,1.09178 -1.89988,0.64677 z m -8.08426,-11.73973 c 0.70242,-0.29349 1.43569,-1.40594 1.43569,-2.17809 0,-0.54806 -0.59197,-1.56804 -1.12793,-1.94344 -0.68952,-0.48296 -2.15291,-0.43204 -2.82721,0.0984 -0.65604,0.51604 -1.10934,1.7371 -0.90046,2.42563 0.18587,0.61274 0.93454,1.45333 1.50429,1.68899 0.63849,0.2641 1.11964,0.24113 1.91562,-0.0914 z m 13.86058,-0.01 c 0.83421,-0.34857 1.4128,-1.28975 1.4128,-2.29817 0,-0.48618 -0.2103,-0.8913 -0.73513,-1.41613 -0.62644,-0.62645 -0.88462,-0.73513 -1.74634,-0.73513 -0.82937,0 -1.12486,0.11366 -1.64322,0.63201 -1.41153,1.41153 -0.39405,4.04038 1.59112,4.11099 0.21193,0.007 0.71627,-0.12457 1.12077,-0.29358 z M 24.123608,227.57032 c -3.251478,-1.47682 -4.209792,-4.80147 -2.411329,-8.36557 0.424937,-0.84212 1.515464,-2.52928 2.423383,-3.74924 1.981145,-2.66202 2.268108,-3.20976 1.827604,-3.48846 -0.171617,-0.10858 -1.832532,-0.19891 -3.69092,-0.20073 -2.723641,-0.002 -3.430638,-0.0656 -3.645729,-0.32482 -0.783804,-0.94444 0.999933,-2.60453 4.915122,-4.57443 2.17298,-1.09332 2.40569,-1.26437 2.13704,-1.57086 -0.67565,-0.77081 -1.279583,-2.34465 -1.380064,-3.5964 -0.297227,-3.70279 2.283921,-6.67368 5.484733,-6.3129 0.813909,0.0917 0.948819,0.0507 0.948819,-0.28828 0,-1.11933 0.531073,-2.71056 1.091785,-3.27127 1.054375,-1.05438 2.099384,-0.74199 3.342014,0.99902 l 0.433852,0.60786 0.715463,-1.74988 c 0.763955,-1.86849 1.454232,-2.62381 2.397845,-2.62381 1.300405,0 2.181087,1.31119 2.181087,3.24726 v 1.09901 l 0.714335,-0.54484 c 1.541213,-1.17554 3.427892,-1.53574 4.672597,-0.89207 1.066412,0.55146 1.423808,1.6393 1.423808,4.3338 0,2.20108 -0.04396,2.4532 -0.590351,3.38258 -1.260069,2.14349 -2.997284,2.92469 -5.983324,2.69064 -1.022267,-0.0802 -2.60188,-0.20208 -3.510256,-0.27101 -2.94974,-0.22382 -5.830158,0.54257 -7.285681,1.93851 -1.03133,0.98912 -1.400363,1.8205 -1.410651,3.17808 -0.01111,1.4621 0.484918,2.60132 2.023933,4.6486 1.869714,2.48718 2.428465,3.89552 2.55043,6.42835 0.122897,2.55218 -0.165619,4.09133 -1.097922,5.85712 -1.246397,2.36069 -3.614497,3.82751 -6.163513,3.81771 -0.729919,-0.002 -1.594657,-0.16805 -2.11411,-0.40398 z m 81.136162,-43.53674 c -0.26348,-0.26758 -1.29085,-2.38376 -2.28304,-4.70266 -1.07366,-2.50931 -2.04677,-4.46644 -2.4037,-4.83435 -0.84926,-0.87539 -2.114028,-0.9788 -4.413475,-0.36085 l -1.801528,0.48413 -0.125945,1.43663 c -0.212705,2.42615 -1.583266,5.80927 -2.877934,7.10394 -0.826845,0.82685 -1.474024,0.64737 -3.020549,-0.83767 -1.933961,-1.85709 -2.554663,-3.19731 -2.566136,-5.5408 -0.0097,-1.98179 0.137181,-1.80386 -1.738482,-2.10585 -3.171948,-0.5107 -5.578243,-3.22579 -5.216237,-5.88563 0.214511,-1.57613 1.026443,-2.98735 3.078814,-5.35126 2.991178,-3.44524 3.964905,-4.73542 6.624069,-8.77675 1.747251,-2.65543 2.88059,-4.14047 3.753933,-4.91886 0.688071,-0.61327 1.332373,-1.11504 1.431776,-1.11504 0.09941,0 0.368706,-0.43851 0.598434,-0.97445 2.254625,-5.25982 9.05893,-9.55062 16.59912,-10.46742 3.00292,-0.36512 8.45132,0.11491 12.3729,1.0901 2.33169,0.57983 3.41409,1.12301 3.58359,1.79834 0.34362,1.3691 -0.57703,1.94021 -3.69169,2.29007 -6.77692,0.76125 -11.99734,2.82487 -15.08092,5.96146 -0.91131,0.92699 -1.35656,1.61215 -0.84027,1.29307 0.44234,-0.27338 4.50619,-0.57715 7.62003,-0.5696 3.70427,0.009 7.79504,0.5652 8.74772,1.18941 1.48701,0.97433 0.86037,3.06981 -1.60592,5.37012 -1.93895,1.80846 -3.97824,2.57789 -8.2968,3.13041 l -1.24002,0.15865 4.37156,3.99995 c 2.40435,2.19997 5.85692,5.35141 7.67238,7.00318 4.42979,4.0304 4.43175,3.95437 -0.15859,6.14205 -1.48647,0.70842 -6.04637,2.90536 -10.13312,4.8821 -4.08675,1.97673 -7.66681,3.59405 -7.95569,3.59405 -0.28888,0 -0.74081,-0.21891 -1.00428,-0.48647 z m -8.147654,-24.43217 c 1.103921,-0.75132 1.61476,-1.5736 1.588953,-2.55769 -0.05663,-2.15932 -2.792725,-2.75554 -4.375051,-0.95337 -1.176699,1.34019 -1.326857,3.16524 -0.309134,3.7573 0.705502,0.41042 2.318987,0.28207 3.095232,-0.24624 z M 36.67116,183.43127 c -0.388532,-0.42933 -0.370259,-0.58481 0.743394,-6.32425 0.627942,-3.23627 1.186644,-6.05058 1.241551,-6.25404 0.07968,-0.29519 -0.262889,-0.20176 -1.6958,0.46251 -2.186717,1.01372 -3.83906,1.31281 -7.252855,1.31281 h -2.611008 l -2.107638,1.40914 c -3.192714,2.13462 -5.133564,2.4928 -7.600657,1.40269 -1.245057,-0.55014 -3.011896,-2.2516 -3.701266,-3.56431 -0.484893,-0.92333 -0.570428,-1.35968 -0.573011,-2.92316 -0.0049,-3.05762 -0.02043,-3.03686 9.199172,-12.39334 l 8.010999,-8.1299 -0.531563,-1.6842 c -1.204132,-3.81512 -1.311527,-6.08979 -0.322266,-6.82568 0.972959,-0.72375 1.554027,-0.38954 4.465122,2.56809 l 2.662524,2.7051 -0.147903,-2.01496 c -0.189137,-2.57667 0.142109,-4.35784 0.903179,-4.85651 0.458254,-0.30026 0.662428,-0.31152 1.442898,-0.0796 2.053793,0.61033 5.080087,3.3853 7.008254,6.42624 0.93442,1.47368 1.040973,1.56597 2.091319,1.81142 4.755174,1.11122 9.043555,4.76067 12.307119,10.47347 1.813737,3.17489 2.980777,6.69639 3.833511,11.56744 0.504948,2.88436 0.757687,6.68331 0.471999,7.09473 -0.108457,0.15619 -2.084912,0.81794 -4.392124,1.47056 -4.487456,1.26933 -6.395536,1.85245 -15.903711,4.86027 -3.347979,1.05909 -6.324752,1.92562 -6.615073,1.92562 -0.290306,0 -0.707087,-0.19806 -0.926166,-0.44014 z M 33.838008,160.2222 c 2.776185,-1.15996 2.161286,-5.10723 -0.795605,-5.10723 -2.581557,0 -3.485422,4.07597 -1.131255,5.1014 0.843638,0.36747 1.059751,0.36813 1.92686,0.006 z m 133.196312,22.12537 c -4.79429,-0.48696 -9.32297,-3.20609 -12.61418,-7.57384 -1.54934,-2.05614 -3.30317,-5.51534 -3.82673,-7.54774 l -0.37119,-1.44095 -1.58238,-0.4912 c -2.99092,-0.92843 -5.64102,-3.18081 -6.58265,-5.59478 -0.38278,-0.9813 -0.48088,-1.67383 -0.48088,-3.39491 0,-2.75415 0.52514,-4.23741 2.08368,-5.88533 1.98932,-2.10342 4.41618,-2.83539 6.74697,-2.03498 l 1.29695,0.44538 0.32432,-0.47541 c 2.56839,-3.76497 4.86457,-5.92368 7.89181,-7.41935 5.6003,-2.76693 13.38406,-2.61606 19.15593,0.37132 2.61973,1.3559 4.94152,3.56945 6.60363,6.29576 0.41687,0.68378 0.7846,1.24324 0.81718,1.24324 0.0326,0 0.39039,-0.16928 0.79515,-0.37615 1.15268,-0.58916 3.26113,-0.48449 4.77062,0.23684 2.4672,1.17899 3.9116,3.25717 4.32196,6.2184 0.66852,4.82409 -1.81308,8.52232 -6.81743,10.15978 l -1.72176,0.56337 -0.47292,1.59876 c -1.24085,4.19496 -3.16553,7.38813 -6.18401,10.25972 -4.00815,3.8131 -8.65016,5.40112 -14.15407,4.84207 z m 6.83151,-9.3658 c 2.10058,-0.40851 3.91349,-1.09653 4.62376,-1.75479 0.70975,-0.65777 0.74647,-1.85713 0.10935,-3.57161 -0.92862,-2.4989 -0.78525,-3.08367 1.00354,-4.09321 1.33722,-0.75468 2.49326,-2.04615 3.2976,-3.68391 0.5068,-1.03192 0.58726,-1.46238 0.58726,-3.14168 0,-1.80261 -0.0597,-2.07098 -0.81085,-3.64413 -1.48084,-3.10138 -4.29469,-5.25901 -7.15825,-5.48887 -1.80157,-0.14461 -3.15005,0.30666 -5.04539,1.68843 -0.80442,0.58645 -1.58599,1.06627 -1.73684,1.06627 -0.15086,0 -0.63942,-0.32793 -1.0857,-0.72873 -0.44629,-0.40079 -1.34656,-1.00296 -2.0006,-1.33814 -0.9886,-0.50662 -1.4627,-0.61012 -2.81078,-0.6136 -1.99733,-0.005 -3.44284,0.59866 -5.17157,2.16025 -2.35131,2.12396 -3.37014,4.44269 -3.21882,7.32562 0.14588,2.77932 1.34935,4.81583 3.84369,6.5043 0.51683,0.34985 1.13171,0.89544 1.3664,1.21243 l 0.4267,0.57634 -0.55878,1.5858 c -0.82062,2.32892 -0.91112,3.21855 -0.39422,3.87569 0.51392,0.65333 2.33936,1.56396 3.8147,1.90298 3.05952,0.70305 7.77286,0.77236 10.9188,0.16056 z m -5.51912,-5.27565 c -0.12203,-0.0874 -0.7362,-0.75716 -1.36483,-1.48842 -1.04528,-1.21596 -1.13718,-1.40853 -1.07541,-2.25345 0.0372,-0.50813 0.17581,-0.95941 0.30813,-1.00284 0.13232,-0.0435 0.75114,0.32459 1.37515,0.81784 1.2823,1.0136 1.47083,0.99735 3.03784,-0.26193 1.07219,-0.86163 1.50853,-0.72258 1.50853,0.48075 0,0.79099 -0.15563,1.0723 -1.31955,2.38513 -1.26982,1.43229 -1.86889,1.75317 -2.46986,1.32292 z m -6.80076,-8.64558 c -1.88883,-0.94898 -2.29382,-3.27045 -0.82655,-4.73772 1.69499,-1.69499 4.46283,-1.1642 5.37176,1.03016 0.72897,1.75989 -1.08866,4.08711 -3.19124,4.08593 -0.33084,-1.8e-4 -0.94013,-0.17045 -1.35397,-0.37837 z m 11.89018,-0.11316 c -2.35545,-1.2456 -2.28601,-4.31036 0.12181,-5.37545 2.73006,-1.20764 5.47361,1.68138 4.10678,4.32453 -0.39575,0.76531 -1.75651,1.52973 -2.73787,1.53804 -0.30831,0.002 -0.97914,-0.2166 -1.49072,-0.48712 z M 32.312419,132.41045 c -0.638035,-0.257 -1.041741,-0.93339 -1.482801,-2.48438 -0.765507,-2.69192 -2.107948,-4.5266 -3.881095,-5.3042 -0.475668,-0.20859 -1.545929,-0.44375 -2.378355,-0.52256 -3.333565,-0.31559 -5.639051,-1.3728 -7.740446,-3.54946 -2.226015,-2.30576 -2.998763,-4.38879 -2.30502,-6.21347 0.123583,-0.32504 1.359021,-2.25297 2.745427,-4.2843 3.425751,-5.01934 5.40701,-7.00692 8.502896,-8.53 2.713279,-1.33486 4.51801,-1.821234 6.699759,-1.805584 l 1.632411,0.01168 0.385932,-1.498147 c 0.536352,-2.082093 2.201525,-5.383272 3.752184,-7.438691 1.793005,-2.376648 4.835659,-5.252262 7.20013,-6.804859 2.510805,-1.648673 3.404864,-1.940686 4.436161,-1.448896 1.196753,0.570691 1.456635,1.846596 0.877454,4.307848 -0.160912,0.683781 -0.26047,1.243235 -0.221253,1.243235 0.03923,0 0.596186,-0.427519 1.237702,-0.950045 2.819873,-2.296801 4.625282,-3.158009 6.620385,-3.158009 1.190436,0 1.892015,0.433901 2.306835,1.426701 0.660557,1.58093 0.167312,5.154976 -1.179224,8.54468 -1.915803,4.822756 -4.533496,7.373377 -10.745541,10.470227 l -2.621117,1.30669 1.657237,4.31486 c 2.897653,7.54448 3.006788,7.67771 9.523562,11.62584 0.89687,0.54335 1.813075,1.18948 2.036011,1.43582 0.488768,0.54008 0.529243,1.63627 0.07714,2.08841 -0.180525,0.18052 -2.507528,0.84902 -5.171122,1.48555 -3.919993,0.93678 -14.804097,3.96231 -20.194069,5.61347 -1.229923,0.37678 -1.142124,0.37095 -1.771162,0.11757 z m -2.791933,-20.93294 c 1.37579,-0.79563 2.05917,-2.72352 1.349379,-3.8068 -0.657263,-1.00311 -2.612471,-0.87049 -3.889913,0.26384 -0.540512,0.47997 -1.209795,1.94469 -1.215859,2.66093 -0.0116,1.37105 2.066852,1.85909 3.756393,0.88203 z m 63.913794,20.07016 c -0.237834,-0.23783 -0.432431,-0.51304 -0.432431,-0.61157 0,-0.87385 4.447405,-5.49475 7.359801,-7.6469 0.89657,-0.66254 2.98843,-2.06173 4.6486,-3.10932 5.00618,-3.15897 7.16159,-5.7267 7.38104,-8.79298 0.0919,-1.28325 0.0588,-1.39922 -0.64408,-2.26474 -0.74982,-0.92322 -1.01582,-0.98025 -1.01582,-0.21776 0,0.7012 -1.22974,3.04641 -2.1392,4.0796 -0.90657,1.02993 -2.78482,2.15134 -4.26001,2.54344 -0.48718,0.12949 -2.05011,0.33057 -3.4732,0.44684 -4.085604,0.3338 -6.350395,1.23155 -6.958553,2.75834 -0.131216,0.32944 -0.384788,1.3185 -0.563499,2.19793 -0.178702,0.87943 -0.48822,1.77943 -0.687826,1.99998 -0.960847,1.06173 -4.304217,-0.15898 -6.629938,-2.42067 -1.11711,-1.08636 -1.256857,-1.31565 -1.195175,-1.96099 0.06611,-0.69202 0.319258,-0.89644 4.772498,-3.8544 2.586452,-1.718 4.702645,-3.21538 4.702645,-3.32751 0,-0.29645 -2.066345,-0.0381 -3.459419,0.4325 -0.654043,0.22096 -2.995682,1.39798 -5.203629,2.6156 -2.207946,1.21762 -4.228275,2.21386 -4.489612,2.21386 -0.628122,0 -1.167865,-0.913 -1.981546,-3.35185 -0.681852,-2.04372 -0.833333,-3.7916 -0.409271,-4.72232 0.240318,-0.52744 3.723509,-3.32252 6.570609,-5.27257 1.757408,-1.2037 2.490277,-2.33729 3.028884,-4.685074 0.561898,-2.449287 -0.05467,-1.787775 7.673698,-8.232637 6.148834,-5.127625 7.406614,-6.038673 8.097524,-5.865266 1.38961,0.348775 1.60964,1.284641 1.05995,4.508394 -0.23825,1.397282 -0.40447,2.540517 -0.36939,2.540517 0.0351,0 2.32884,-1.567044 5.09721,-3.482324 2.76838,-1.915274 5.27286,-3.57471 5.56551,-3.687628 0.29265,-0.112919 0.75304,-0.149848 1.02309,-0.08208 0.48487,0.121696 1.14749,1.103455 1.14749,1.700148 0,0.169051 -0.77837,1.828407 -1.72971,3.687448 -0.95134,1.859042 -1.72938,3.50121 -1.72898,3.649268 4.2e-4,0.167254 0.7578,0.416087 1.99997,0.657091 2.4923,0.483554 6.09103,1.675445 7.78526,2.57846 2.56615,1.367749 2.41733,2.246641 -0.5764,3.404038 -1.02206,0.395135 -1.85829,0.765585 -1.85829,0.823215 0,0.0576 0.90953,1.0524 2.02119,2.21059 1.11166,1.15818 2.57921,2.94444 3.26123,3.96947 1.32258,1.98771 2.92483,5.34055 2.93036,6.13202 0.006,0.86851 -0.67441,0.98491 -2.41857,0.41372 -1.61792,-0.52985 -2.98343,-0.84309 -2.98343,-0.68439 0,0.0491 0.13973,0.70343 0.31049,1.45404 0.4894,2.15108 0.61485,4.64069 0.35242,6.99395 -0.29574,2.65189 -1.21077,6.79674 -1.58071,7.16012 -0.49364,0.4849 -12.35519,2.01178 -24.043656,3.09503 -5.771901,0.53493 -5.42999,0.53451 -5.957124,0.007 z m 3.804214,-28.24011 c 1.249666,-0.593 2.944066,-3.413899 2.595776,-4.321531 -0.190421,-0.496236 -2.031346,-0.312941 -4.374709,0.435569 -2.370665,0.757232 -2.494976,0.935632 -1.704283,2.445842 0.87953,1.67988 2.00093,2.14351 3.483216,1.44012 z m 55.032666,26.80748 c -0.46869,-0.32829 -0.50412,-0.47435 -0.40736,-1.67973 0.12463,-1.55256 0.75176,-3.14269 2.03107,-5.14987 2.3028,-3.61299 5.42226,-5.59672 10.78187,-6.85646 7.80466,-1.83443 8.23773,-1.95882 10.2005,-2.92979 1.1335,-0.56074 2.49621,-1.44945 3.17806,-2.07261 3.43296,-3.13755 3.93782,-8.9057 1.10458,-12.620267 -0.7261,-0.951972 -2.43443,-2.053245 -3.43757,-2.216029 l -0.77541,-0.12583 v 2.144999 c 0,6.985737 -3.95335,11.330087 -11.87892,13.053777 -4.82823,1.05007 -10.42149,1.55151 -12.22906,1.09636 -1.22663,-0.30887 -1.42022,-0.18907 -2.20864,1.36679 -0.36202,0.71441 -0.61755,1.69128 -0.73883,2.82436 -0.26363,2.4632 -0.33679,2.68013 -0.95625,2.83561 -0.52231,0.1311 -1.39338,-0.36809 -1.39338,-0.79852 0,-0.0927 -0.098,-0.42628 -0.2177,-0.7412 l -0.21769,-0.57259 -0.61844,0.52038 c -0.34014,0.28621 -0.92965,0.64928 -1.31002,0.80684 -0.59975,0.24843 -0.73784,0.2402 -1.04003,-0.062 -0.29513,-0.29513 -0.30688,-0.44065 -0.0768,-0.95102 0.5377,-1.19268 2.48404,-4.30575 3.53483,-5.65375 l 1.07224,-1.37555 -1.08791,-0.95167 c -1.8593,-1.62648 -2.34885,-2.87432 -1.95648,-4.98694 0.36745,-1.97848 1.20933,-3.27681 3.96901,-6.12095 1.78527,-1.839911 2.99806,-3.316338 3.79917,-4.625021 2.65809,-4.342258 6.92529,-7.583807 12.03143,-9.139584 1.72897,-0.526791 2.23622,-0.581044 5.57757,-0.596554 3.21939,-0.01495 3.88753,0.04429 5.38266,0.477359 8.76356,2.538289 15.13001,9.970173 16.17569,18.88272 0.43728,3.72708 -0.38626,7.70586 -2.25463,10.89279 -0.95226,1.62431 -3.93708,4.77097 -5.58713,5.8901 -2.74637,1.86267 -5.76016,2.98277 -12.02782,4.47022 -5.37975,1.27672 -6.6389,1.94175 -7.81212,4.12601 l -0.58067,1.08107 -4.75625,0.058 c -4.14649,0.0506 -4.82206,0.0119 -5.26958,-0.30151 z m 9.40542,-29.6607 c 1.63133,-0.832238 3.02341,-3.024405 2.85539,-4.496517 -0.10771,-0.943752 -1.2125,-1.442505 -2.88222,-1.301173 -1.58478,0.134149 -2.65093,0.561252 -3.69979,1.482163 -1.73698,1.52509 -1.85462,4.016197 -0.22298,4.721667 0.73847,0.31929 2.9793,0.0889 3.9496,-0.40614 z m 3.19438,-22.973614 c -2.04492,-0.246129 -3.74619,-0.909741 -4.83822,-1.887259 -0.49273,-0.44106 -1.69263,-1.871798 -2.66643,-3.179419 -1.52603,-2.049135 -1.96464,-2.486787 -3.17594,-3.168958 -0.77296,-0.435307 -1.98008,-1.116775 -2.68249,-1.514361 -1.49396,-0.84564 -4.09906,-3.210381 -5.22213,-4.740301 -0.76863,-1.047085 -0.85991,-1.712258 -0.23497,-1.712258 0.65307,0 4.49466,-1.599307 4.68189,-1.949128 0.12916,-0.241348 0.10692,-0.488367 -0.0642,-0.712268 -0.2138,-0.279829 -0.84756,-0.354806 -3.45097,-0.408242 l -3.18909,-0.06546 -0.27034,-0.756748 c -0.17738,-0.496538 -0.26554,-1.983466 -0.25638,-4.324279 0.0116,-2.973079 0.0927,-3.852511 0.48651,-5.277855 0.55511,-2.009199 1.24389,-3.57863 2.44722,-5.576168 l 0.87271,-1.448724 -0.89508,-0.929632 c -2.93472,-3.048006 -3.8068,-9.655913 -1.48927,-11.284606 1.91004,-1.342326 5.20728,-0.705959 9.3921,1.812666 1.72917,1.040695 1.84838,1.079683 2.41426,0.789631 0.9814,-0.503035 4.59136,-1.585374 6.32495,-1.896346 1.00493,-0.180271 3.22492,-0.288483 5.83777,-0.284577 4.8472,0.0074 6.98123,0.358344 10.33573,1.700458 l 1.96833,0.787514 1.05551,-0.758308 c 2.22277,-1.596904 5.25315,-2.707934 7.39696,-2.711955 1.62629,-0.0033 2.58021,0.510995 3.18916,1.718568 1.17472,2.329561 0.0597,7.457674 -2.193,10.08581 l -0.76155,0.888478 1.37304,2.711252 c 1.93238,3.815712 2.36263,5.682231 2.37941,10.322435 0.0113,3.107988 -0.0489,3.762489 -0.46665,5.081027 -1.36386,4.304504 -4.78244,7.781084 -10.057,10.227609 l -1.88798,0.875713 -1.42074,2.189348 c -2.92285,4.504094 -4.37002,5.253045 -10.5869,5.478997 -1.54593,0.05622 -3.50175,0.01896 -4.34627,-0.08265 z m 1.50112,-6.472933 c 0.89095,-0.35675 1.86462,-0.648641 2.16372,-0.648641 0.29911,0 1.34981,0.29717 2.33488,0.660384 1.96791,0.725588 2.58377,0.703336 3.11845,-0.112698 0.51355,-0.783779 0.21223,-1.376762 -0.95355,-1.876472 -2.04343,-0.875917 -3.27547,-2.234996 -3.277,-3.614905 -6.5e-4,-0.611255 0.25388,-0.991361 1.59278,-2.378355 0.87647,-0.907959 1.7035,-1.863348 1.83782,-2.123099 0.3756,-0.726323 0.29668,-1.538476 -0.17399,-1.790365 -0.24609,-0.131706 -2.10494,-0.223827 -4.51654,-0.223827 -3.64113,0 -4.15254,0.04388 -4.5843,0.393532 -0.45361,0.367301 -0.46738,0.449943 -0.20661,1.240056 0.17594,0.533124 0.90733,1.502233 1.97553,2.617627 1.80296,1.882633 1.98756,2.345226 1.39237,3.489173 -0.42591,0.818583 -1.11327,1.41079 -2.61511,2.253121 -1.19174,0.668401 -1.29729,0.78789 -1.29729,1.468704 0,0.573444 0.12229,0.802967 0.54054,1.01457 0.74558,0.377197 0.83669,0.364604 2.6683,-0.368805 z m -4.18933,-18.161964 c 0.39107,0 0.39573,-1.010589 0.009,-1.885575 -1.048,-2.369162 -2.77427,-3.938307 -4.83253,-4.392646 -1.52951,-0.337612 -2.30368,-0.04249 -2.30368,0.878263 0,1.298108 1.35254,3.244401 2.9807,4.289181 1.06212,0.681567 3.17384,1.371876 3.68556,1.204803 0.15837,-0.05173 0.36593,-0.09403 0.46126,-0.09403 z m 15.5988,-0.572839 c 2.12591,-0.94671 4.33727,-3.794743 3.99751,-5.148453 -0.35679,-1.421537 -4.17743,-0.551862 -5.70221,1.297969 -0.83203,1.009397 -1.77859,2.947779 -1.77859,3.642224 0,1.126246 1.25355,1.201198 3.48329,0.20826 z M 163.70259,42.144686 c 0.17683,-0.213074 0.23688,-0.811025 0.17657,-1.758226 -0.083,-1.303583 -0.15817,-1.495001 -0.81876,-2.085238 -0.72021,-0.64351 -0.7456,-0.648593 -2.5825,-0.517353 -2.58881,0.184962 -4.0829,0.6554 -4.25463,1.33963 -0.28488,1.135039 -0.17648,1.204059 3.91298,2.491495 2.97313,0.935988 3.20104,0.969844 3.56634,0.529692 z m 13.28139,-0.655253 c 1.65553,-0.537039 3.1393,-1.083703 3.29727,-1.214805 0.15797,-0.131101 0.28721,-0.51584 0.28721,-0.854981 0,-0.791363 -0.66609,-1.147877 -2.74409,-1.468712 -3.92036,-0.60529 -5.03961,-0.01667 -5.03961,2.650388 0,1.492493 0.14551,1.866453 0.72583,1.865391 0.25484,-4.33e-4 1.81787,-0.440243 3.47339,-0.977281 z M 98.681727,76.608347 C 96.30235,76.16298 94.219522,74.688474 93.286843,72.789145 92.733738,71.662793 92.670537,71.293907 92.60173,68.79035 l -0.07575,-2.757979 -0.941243,-1.651672 c -1.073489,-1.883729 -2.556412,-6.276497 -2.981594,-8.832198 -0.254578,-1.530255 -0.335439,-1.717243 -0.701236,-1.6216 -0.227406,0.05949 -1.38643,0.108106 -2.575599,0.108106 -1.912084,0 -2.299667,-0.06758 -3.35132,-0.584386 -2.261784,-1.111488 -5.243182,-4.345184 -5.243182,-5.686889 0,-0.965628 1.029557,-1.791011 2.966632,-2.378323 2.504202,-0.759248 5.301649,-1.401082 6.114349,-1.402831 0.808581,-0.0016 0.940091,-0.327479 0.206544,-0.511591 -0.875027,-0.219619 -3.123889,-1.808948 -4.414782,-3.120042 -2.210848,-2.245431 -3.084347,-4.586163 -3.083039,-8.261646 0.0016,-4.572754 1.184773,-6.881885 2.937629,-5.733379 0.305881,0.200423 0.932965,1.164907 1.445651,2.223482 1.103731,2.278953 2.707982,4.077931 4.669597,5.236407 1.439645,0.850225 4.367713,1.949128 5.193488,1.949128 0.245573,0 0.877495,-0.328991 1.404278,-0.731096 1.568213,-1.197047 2.187787,-1.259398 11.514367,-1.15877 9.17495,0.09899 9.2225,0.10527 10.88846,1.438583 l 0.7625,0.610267 1.61584,-0.4184 c 2.35444,-0.609637 4.14368,-1.573377 5.84433,-3.147924 1.22925,-1.138103 1.68742,-1.764689 2.52826,-3.457719 1.17931,-2.374506 1.88646,-3.063819 2.81028,-2.73938 0.91927,0.322838 1.56552,2.181152 1.71128,4.920875 0.13624,2.560808 -0.24494,4.753393 -1.15163,6.624381 -0.77988,1.609285 -3.43145,4.236539 -5.36998,5.320725 -1.4133,0.790439 -1.47055,0.850404 -0.86485,0.905769 1.19015,0.108784 3.87002,0.735639 5.88452,1.376476 2.17762,0.692721 3.30457,1.454731 3.30457,2.234449 0,0.716198 -1.57906,2.975195 -2.86758,4.102365 -1.83111,1.601816 -3.44579,2.342857 -5.34438,2.45276 -0.89561,0.05181 -2.01152,-0.01152 -2.47978,-0.140809 -0.46826,-0.129296 -0.87472,-0.21175 -0.90324,-0.183238 -0.0285,0.02852 -0.25873,1.071813 -0.5116,2.318439 -0.61068,3.010588 -1.49269,5.593558 -2.80995,8.228943 l -1.0833,2.167308 v 2.22506 c 0,3.453233 -0.65046,4.989894 -2.71281,6.408832 -2.08033,1.431301 -2.80898,1.556086 -9.39516,1.608974 -3.27024,0.02623 -6.35747,-0.02926 -6.86053,-0.12346 z m 3.130833,-5.736828 c 0.60133,-0.161149 0.62269,-0.73206 0.0727,-1.943162 -0.49996,-1.100963 -1.17808,-1.596202 -2.185652,-1.596202 -0.93406,0 -1.292412,0.314723 -1.292412,1.135055 0,1.67645 1.684214,2.865562 3.405364,2.404309 z m 8.31034,-0.08747 c 1.02454,-0.284553 1.90577,-1.318514 1.90577,-2.236059 0,-0.888567 -0.33462,-1.215834 -1.24316,-1.215834 -1.43127,0 -2.31354,0.851949 -2.73103,2.637183 -0.21854,0.934526 0.54881,1.23677 2.06842,0.81471 z M 97.300208,54.379925 c 0.37347,-0.236543 0.173946,-1.806709 -0.396662,-3.121611 -0.730557,-1.683452 -2.930111,-3.289101 -3.962822,-2.892815 -0.670845,0.25743 -0.583439,2.385016 0.156123,3.80035 0.817096,1.56371 3.226456,2.832808 4.203361,2.214076 z m 17.370372,-0.03007 c 1.80406,-0.501041 3.03504,-2.264316 3.06808,-4.394778 0.022,-1.415293 -0.27968,-1.811375 -1.20293,-1.579654 -1.5737,0.394979 -3.20885,2.341443 -3.65983,4.356649 -0.39088,1.746637 0.0146,2.112156 1.79468,1.617783 z M 36.301865,74.048519 C 33.457746,71.223424 31.990742,70.632778 23.93112,69.067818 21.172005,68.53207 18.934729,67.974929 18.209819,67.643054 c -2.46067,-1.126524 -4.473686,-3.135667 -6.604523,-6.591776 -1.6726991,-2.713042 -1.472211,-3.223644 2.99721,-7.633124 3.274375,-3.230468 6.092622,-5.594 8.97152,-7.524014 2.112246,-1.416061 5.606273,-3.240168 7.428509,-3.878169 0.696226,-0.243767 0.811253,-0.377034 0.813991,-0.94314 0.0057,-1.25 0.662558,-3.475117 1.566031,-5.307853 2.203575,-4.470099 6.414503,-6.922703 11.403605,-6.641902 4.34404,0.244494 7.830712,2.360312 9.41772,5.714976 1.186375,2.507789 1.464717,5.569614 0.757654,8.334213 -0.591814,2.313985 -1.138405,3.259355 -2.955967,5.112619 -0.876432,0.893642 -1.52151,1.686525 -1.433516,1.761968 0.088,0.07543 0.847071,0.676949 1.686836,1.336704 3.121978,2.45276 6.277167,5.946901 8.739595,9.678435 1.449582,2.196687 3.246926,5.675555 3.246926,6.284612 0,0.986515 -0.60681,1.239622 -8.216122,3.427009 -4.102659,1.179355 -9.528416,2.784783 -12.057231,3.567607 -2.528824,0.782823 -4.900421,1.423317 -5.270231,1.423317 -0.550775,0 -0.984832,-0.310367 -2.399961,-1.716017 z M 30.42525,55.465148 c 0.884579,-0.539416 1.472937,-1.79642 1.310203,-2.799214 -0.394987,-2.434022 -4.016062,-3.001713 -5.336218,-0.836586 -0.23213,0.38071 -0.42242,0.964598 -0.42287,1.297528 -0.0025,2.040138 2.650756,3.434773 4.448885,2.338272 z"
       id="path1569"
       inkscape:connector-curvature="0" />
  </g>
</svg>
