<?xml version="1.0" encoding="UTF-8" standalone="no"?>
<!-- Created with Inkscape (http://www.inkscape.org/) -->

<svg
   xmlns:dc="http://purl.org/dc/elements/1.1/"
   xmlns:cc="http://creativecommons.org/ns#"
   xmlns:rdf="http://www.w3.org/1999/02/22-rdf-syntax-ns#"
   xmlns:svg="http://www.w3.org/2000/svg"
   xmlns="http://www.w3.org/2000/svg"
   xmlns:sodipodi="http://sodipodi.sourceforge.net/DTD/sodipodi-0.dtd"
   xmlns:inkscape="http://www.inkscape.org/namespaces/inkscape"
   width="210mm"
   height="297mm"
   viewBox="0 0 210 297"
   version="1.1"
   id="svg8"
   inkscape:version="0.92.5 (2060ec1f9f, 2020-04-08)"
   sodipodi:docname="shadow_icon.svg">
  <defs
     id="defs2" />
  <sodipodi:namedview
     id="base"
     pagecolor="#ffffff"
     bordercolor="#666666"
     borderopacity="1.0"
     inkscape:pageopacity="0.0"
     inkscape:pageshadow="2"
     inkscape:zoom="0.76257015"
     inkscape:cx="396.85039"
     inkscape:cy="561.25984"
     inkscape:document-units="mm"
     inkscape:current-layer="layer1"
     showgrid="false"
     inkscape:window-width="1920"
     inkscape:window-height="1016"
     inkscape:window-x="0"
     inkscape:window-y="27"
     inkscape:window-maximized="1" />
  <metadata
     id="metadata5">
    <rdf:RDF>
      <cc:Work
         rdf:about="">
        <dc:format>image/svg+xml</dc:format>
        <dc:type
           rdf:resource="http://purl.org/dc/dcmitype/StillImage" />
        <dc:title></dc:title>
      </cc:Work>
    </rdf:RDF>
  </metadata>
  <g
     inkscape:label="Layer 1"
     inkscape:groupmode="layer"
     id="layer1">
    <g
       id="g890"
       transform="translate(-231.0771,-166.54206)">
      <path
         inkscape:connector-curvature="0"
         id="rect849"
         d="m 341.41105,212.74588 c -3.91738,-3.91738 -10.22465,-3.91739 -14.14202,-2e-5 l -35.52457,35.52457 c -3.91737,3.91737 -3.91735,10.22463 2e-5,14.14201 l 15.156,15.15599 20.36855,20.36856 7.071,7.07099 7.07099,-7.07099 18.10523,-18.10523 17.41934,-17.41934 c 3.91738,-3.91738 3.91737,-10.22462 0,-14.142 z"
         style="opacity:1;fill:#000000;fill-opacity:1;stroke:none;stroke-width:0;stroke-linecap:round;stroke-linejoin:round;stroke-miterlimit:4;stroke-dasharray:none;stroke-dashoffset:0;stroke-opacity:1" />
      <path
         sodipodi:nodetypes="ccccccccccccccccsscscccccccccccccscccccccccc"
         inkscape:connector-curvature="0"
         id="path864"
         transform="scale(0.26458333)"
         d="m 1263.4297,836.79492 c -14.0302,0.0741 -27.033,6.53884 -40.7656,20.27149 -17.4556,17.45559 -22.5324,30.50916 -32.1719,82.69921 -5.4993,29.77395 -5.6978,30.36031 -15.9492,47.32422 -6.0725,10.04878 -9.4352,18.55746 -8.5,21.51176 1.1493,3.6308 21.4112,29.5755 30.8867,39.5507 4.0391,4.8082 8.0577,9.4387 12.4863,13.8789 l 23.9531,18.4708 c 12.9267,9.9514 9.2364,9.1252 9.2364,25.7324 l -2.836,22.6738 13.6289,13.6289 c -0.2858,-14.1846 0.6712,-28.406 -0.5312,-42.5527 -1.4886,-17.5002 -1.7868,-18.0193 -16.7774,-29.1114 -25.9285,-19.1854 -40.1935,-37.3428 -45.2793,-57.6386 -1.9749,-7.8815 -1.4209,-26.34914 1.1407,-38.00002 4.6542,-21.1694 15.689,-47.01271 26.6582,-62.4336 7.7229,-10.8573 22.5797,-25.1471 31.9023,-30.68555 12.3525,-7.33848 20.1912,-6.29169 34.7266,4.63477 25.7819,19.38059 44.3792,53.48342 51.7969,94.98438 6.0714,33.96902 -5.5032,57.58112 -42.1758,86.03512 -6.7932,5.2708 -13.4552,10.8927 -14.8028,12.4942 -2.9202,3.4706 -4.6269,10.6738 -4.6269,19.5195 0,13.7396 0,27.4792 0,41.2188 l 14.9433,-14.9415 2.1407,-2.1406 -3.7325,-17.6855 c -2.8137,-22.0193 3.716,-24.2718 20.7793,-36.1211 l 13.8672,-13.4121 c 0.1554,-0.5952 2.2536,-2.7594 6.0098,-6.4981 4.68,-4.6581 10.5891,-11.1779 13.1309,-14.4883 7.388,-9.6221 18.862,-28.3659 18.8378,-30.7734 -0.03,-3.0879 -2.7878,-8.83095 -8.9882,-18.72265 -9.1514,-14.59903 -10.809,-19.82373 -16.502,-51.98437 -8.8871,-50.20521 -20.1357,-72.06079 -45.6621,-88.72461 -9.7012,-6.33302 -17.1879,-8.76564 -26.8242,-8.71485 z m 23.9902,80.85352 c -66.9029,0.4831 -46.6482,53.5342 8.791,60.50195 0.7048,0.0457 1.5477,-0.70352 1.875,-1.66601 0.3273,-0.9625 3.0538,-7.30359 6.0567,-14.08985 6.1921,-13.99378 6.2824,-16.24042 0.7617,-18.87305 -3.328,-1.58702 -5.515,3.26962 -9.2402,5.36329 -59.1263,-5.87267 10.0741,-17.96248 10.7656,-22.99024 0,-1.66722 -4.6665,-6.01855 -8.5,-7.92578 -3.7181,-0.24227 -7.2195,-0.34375 -10.5098,-0.32031 z"
         style="fill:#ffffff;stroke-width:0.99999994" />
    </g>
    <path
       sodipodi:nodetypes="ccccccccccsscccccccccsccsccccscccccccccsccccccscccccsccc"
       inkscape:connector-curvature="0"
       d="m 279.95215,65.744621 c 0.0866,-0.25466 0.80749,-1.93209 1.60199,-3.727617 1.63834,-3.70252 1.66236,-4.2974 0.20167,-4.993947 -0.88054,-0.4199 -1.45927,0.865447 -2.44491,1.419397 -15.64381,-1.553807 2.66552,-4.752517 2.84847,-6.082774 0,-0.44112 -1.23468,-1.59237 -2.24897,-2.09699 -20.98667,-1.36751 -15.84443,13.988681 -0.45472,15.922901 0.18647,0.0121 0.40988,-0.18634 0.49648,-0.441 z m -9.16971,-36.959319 c -3.71216,0.0196 -7.15248,1.73007 -10.78591,5.363497 -4.61846,4.618457 -5.96167,8.072214 -8.51214,21.880828 -1.45502,7.877684 -1.50754,8.032814 -4.2199,12.521181 -1.60668,2.65874 -2.49639,4.91 -2.24896,5.691647 0.3041,0.96067 5.66506,7.825177 8.17211,10.464464 1.06869,1.27215 2.13196,2.49731 3.30368,3.67213 l 6.33759,4.887037 c 3.42017,2.633007 2.44379,2.414377 2.44379,6.808364 h 2.85562 l -0.14054,-1.653637 c -0.39386,-4.630257 -0.47276,-4.767617 -4.43901,-7.702367 -6.86027,-5.076167 -10.63454,-9.880304 -11.98015,-15.250231 -0.52254,-2.085307 -0.37595,-6.971527 0.30179,-10.054154 1.23143,-5.601067 4.15108,-12.438774 7.05332,-16.518881 2.04337,-2.872657 5.97422,-6.653507 8.44082,-8.118884 3.26827,-1.94164 5.34226,-1.66467 9.18808,1.226287 6.82146,5.127777 11.742,14.150814 13.7046,25.131268 1.60639,8.987644 -1.45606,15.234991 -11.15902,22.763455 -1.79736,1.39455 -3.56002,2.88202 -3.91657,3.30574 -0.77266,0.91828 -1.2242,2.824117 -1.2242,5.164537 v 1.706867 h 3.53258 c -0.74447,-5.825924 0.98317,-6.421914 5.49786,-9.557034 l 3.66903,-3.548617 c 0.0411,-0.15748 0.59626,-0.73009 1.59009,-1.71927 1.23825,-1.232457 2.8017,-2.957497 3.47422,-3.833357 1.95477,-2.54585 4.99052,-7.505147 4.98417,-8.142134 -0.008,-0.817 -0.73758,-2.33652 -2.37813,-4.9537 -2.42128,-3.862657 -2.85988,-5.245027 -4.36616,-13.754191 -2.35137,-13.283451 -5.32757,-19.066068 -12.08143,-23.475035 -2.56677,-1.67561 -4.54763,-2.31925 -7.09723,-2.30581 z m -40.08457,76.207148 c -0.43656,-0.19403 -1.09141,-0.6752 -1.45521,-1.06926 l -0.66146,-0.71649 -0.0666,-39.070869 c -0.0655,-38.385276 -0.0575,-39.085736 0.45132,-39.917926 1.10144,-1.80124 -2.1329,-1.67878 42.3329,-1.60286 l 40.22055,0.0687 0.99657,0.9966 0.99658,0.9966 v 39.136526 39.136519 l -0.79375,0.84371 c -1.57777,1.67708 1.20469,1.57326 -41.86182,1.56194 -32.21438,-0.008 -39.50948,-0.0745 -40.15904,-0.36315 z"
       style="fill:#000000;stroke-width:0.26458332"
       id="path857" />
    <path
       inkscape:connector-curvature="0"
       id="path867"
       d="m 277.91101,122.78749 c -3.91738,-3.91738 -10.22465,-3.91739 -14.14202,-2e-5 l -35.52457,35.52457 c -3.91737,3.91737 -3.91735,10.22463 2e-5,14.14201 l 15.156,15.15599 20.36855,20.36856 7.071,7.07099 7.07099,-7.07099 18.10523,-18.10523 17.41934,-17.41934 c 3.91738,-3.91738 3.91737,-10.22462 0,-14.142 z"
       style="opacity:1;fill:#000000;fill-opacity:1;stroke:none;stroke-width:0;stroke-linecap:round;stroke-linejoin:round;stroke-miterlimit:4;stroke-dasharray:none;stroke-dashoffset:0;stroke-opacity:1" />
    <path
       inkscape:connector-curvature="0"
       id="path869"
       d="m 270.78243,131.44362 c -3.71215,0.0196 -7.15247,1.73007 -10.7859,5.3635 -4.61846,4.61846 -5.96168,8.07221 -8.51214,21.88083 -1.45503,7.87769 -1.50754,8.03283 -4.2199,12.5212 -1.60668,2.65874 -2.49639,4.90999 -2.24896,5.69164 0.3041,0.96067 5.66506,7.82519 8.17211,10.46448 1.06869,1.27215 2.13195,2.49731 3.30368,3.67213 l 6.33759,4.88705 c 3.42018,2.633 2.44379,2.41438 2.44379,6.80836 h 2.85562 l -0.14055,-1.65364 c -0.39386,-4.63026 -0.47275,-4.76763 -4.43901,-7.70239 -6.86027,-5.07616 -10.63453,-9.88029 -11.98014,-15.25022 -0.52254,-2.08531 -0.37595,-6.97154 0.30179,-10.05417 1.23143,-5.60107 4.15107,-12.43878 7.05332,-16.51889 2.04336,-2.87266 5.97421,-6.6535 8.44082,-8.11888 3.26826,-1.94164 5.34225,-1.66468 9.18808,1.22628 6.82146,5.12778 11.74199,14.15082 13.70459,25.13128 1.60639,8.98765 -1.45605,15.235 -11.15901,22.76347 -1.79737,1.39456 -3.56002,2.88202 -3.91657,3.30575 -0.77264,0.91826 -1.22421,2.82411 -1.22421,5.16453 v 1.70688 h 3.53259 c -0.74446,-5.82593 0.98319,-6.42191 5.49786,-9.55704 l 3.66903,-3.54862 c 0.0411,-0.15748 0.59626,-0.7301 1.59009,-1.71928 1.23825,-1.23246 2.8017,-2.95749 3.47422,-3.83336 1.95476,-2.54585 4.99054,-7.50514 4.98416,-8.14213 -0.008,-0.817 -0.73758,-2.33653 -2.37812,-4.95371 -2.42129,-3.86266 -2.85989,-5.24502 -4.36616,-13.75419 -2.35138,-13.28346 -5.32757,-19.06609 -12.08143,-23.47506 -2.56677,-1.67561 -4.54763,-2.31924 -7.09724,-2.3058 z m 6.34741,21.39249 c -17.70141,0.12782 -12.34236,14.16426 2.32595,16.00781 0.18648,0.0121 0.4095,-0.18614 0.4961,-0.4408 0.0866,-0.25466 0.80798,-1.93241 1.6025,-3.72794 1.63833,-3.70252 1.66222,-4.29694 0.20153,-4.99349 -0.88053,-0.4199 -1.45917,0.86509 -2.4448,1.41904 -15.64382,-1.55381 2.66544,-4.75258 2.8484,-6.08284 0,-0.44112 -1.23468,-1.59241 -2.24896,-2.09703 -0.98375,-0.0641 -1.91016,-0.091 -2.78072,-0.0848 z"
       style="fill:#ffffff;stroke-width:0.26458332" />
    <g
       id="g886"
       transform="translate(-132.19276,-46.146028)">
      <path
         style="opacity:1;fill:#000000;fill-opacity:1;stroke:none;stroke-width:0;stroke-linecap:round;stroke-linejoin:round;stroke-miterlimit:4;stroke-dasharray:none;stroke-dashoffset:0;stroke-opacity:1"
         d="m 246.16099,212.74588 c -3.91738,-3.91738 -10.22465,-3.91739 -14.14202,-2e-5 l -35.52457,35.52457 c -3.91737,3.91737 -3.91735,10.22463 2e-5,14.14201 l 15.156,15.15599 20.36855,20.36856 7.071,7.07099 7.07099,-7.07099 18.10523,-18.10523 17.41934,-17.41934 c 3.91738,-3.91738 3.91737,-10.22462 0,-14.142 z"
         id="path880"
         inkscape:connector-curvature="0" />
      <path
         style="fill:#ffffff;stroke-width:0.26458332"
         d="m 239.03238,221.40199 c -3.71216,0.0196 -7.15248,1.73006 -10.7859,5.36349 -4.61846,4.61846 -5.9617,8.07222 -8.51215,21.88084 -1.45502,7.87769 -1.50754,8.03283 -4.21989,12.5212 -1.60668,2.65874 -2.4964,4.90999 -2.24896,5.69165 0.30409,0.96065 5.66505,7.82518 8.17211,10.46446 1.06868,1.27217 2.13193,2.49732 3.30367,3.67212 l 6.33759,4.88707 c 3.42019,2.63297 2.44379,2.41437 2.44379,6.80836 l -0.75035,5.99911 3.60598,3.60598 c -0.0756,-3.75301 0.17758,-7.51575 -0.14055,-11.25873 -0.39386,-4.63027 -0.47276,-4.76761 -4.43902,-7.7024 -6.86025,-5.07613 -10.63453,-9.88028 -11.98015,-15.25021 -0.52252,-2.08531 -0.37595,-6.97154 0.30181,-10.05417 1.23142,-5.60107 4.15105,-12.43878 7.05332,-16.51889 2.04335,-2.87266 5.97421,-6.6535 8.44081,-8.11889 3.26827,-1.94163 5.34226,-1.66467 9.18808,1.22629 6.82146,5.12778 11.742,14.15082 13.7046,25.13128 1.60639,8.98764 -1.45606,15.23501 -11.15901,22.76346 -1.79737,1.39457 -3.56003,2.88203 -3.91658,3.30576 -0.77264,0.91826 -1.2242,2.82411 -1.2242,5.16453 v 10.90581 l 3.95375,-3.95327 0.56639,-0.56637 -0.98756,-4.67929 c -0.74445,-5.82594 0.9832,-6.42191 5.49786,-9.55704 l 3.66903,-3.54862 c 0.0411,-0.15748 0.59627,-0.73009 1.59009,-1.71929 1.23825,-1.23245 2.8017,-2.95748 3.47422,-3.83336 1.95474,-2.54585 4.99057,-7.50514 4.98417,-8.14213 -0.008,-0.817 -0.73761,-2.33652 -2.37813,-4.9537 -2.42131,-3.86266 -2.85988,-5.24503 -4.36615,-13.7542 -2.35138,-13.28346 -5.32757,-19.06608 -12.08143,-23.47505 -2.56678,-1.67561 -4.54764,-2.31924 -7.09724,-2.3058 z"
         id="path882"
         inkscape:connector-curvature="0"
         sodipodi:nodetypes="ccccccccccccccccsscscccccccccccccsc" />
    </g>
    <path
       id="path941"
       style="fill:#000000;stroke-width:0.26458332"
       d="m -74.554589,151.71753 c 0.718794,-3.1627 1.871306,-5.24671 4.160391,-7.52298 2.309833,-2.2969 4.35357,-3.41507 7.499918,-4.10334 l 2.06285,-0.45126 -0.07847,-1.49205 -0.07847,-1.49205 -0.926042,0.0922 c -1.587407,0.15809 -4.819028,1.30544 -6.614541,2.3484 -0.945861,0.54943 -2.676191,1.95146 -3.845176,3.11563 -2.863543,2.85174 -4.559321,6.14883 -5.264689,10.2361 -0.167373,0.96985 -0.162394,0.97631 0.832702,1.08 0.550592,0.0574 1.179959,0.12433 1.398587,0.14879 0.2886,0.0323 0.52229,-0.50456 0.85295,-1.95946 z m 33.894521,1.27634 c -0.50737,-3.50494 -1.677326,-6.22846 -3.976661,-9.25721 -2.815725,-3.70895 -7.029026,-6.09997 -12.184464,-6.91459 l -1.389063,-0.21949 v 1.49295 1.49294 l 2.213518,0.41789 c 3.145708,0.59388 5.460481,1.81053 7.718887,4.05707 2.60953,2.59583 4.355095,6.22402 4.355095,9.05217 v 0.87045 h 1.703157 1.703157 z m -14.893366,13.94856 c 3.413119,-0.9913 6.475698,-3.60476 7.997824,-6.82496 1.422562,-3.00956 1.311265,-7.18634 -0.283239,-10.62933 -0.824759,-1.78089 -3.666466,-4.6954 -5.376476,-5.5142 -5.232569,-2.50553 -11.767507,-1.3197 -15.659975,2.84166 -6.023604,6.43972 -2.911144,17.75692 5.571816,20.25964 0.502806,0.14835 0.595312,0.0752 0.595312,-0.47058 0,-0.35542 0.06639,-0.98852 0.147542,-1.40689 0.138838,-0.7158 0.04351,-0.81398 -1.615744,-1.66409 -3.114794,-1.59585 -4.881798,-4.60726 -4.881798,-8.31979 0,-4.14974 1.776389,-6.97714 5.55625,-8.84363 1.304798,-0.64431 1.742353,-0.71837 4.233333,-0.7165 2.386227,0.002 2.956534,0.0904 4.042844,0.62819 2.0017,0.99095 3.771209,2.75809 4.746463,4.74012 0.794134,1.61393 0.866254,1.96702 0.847656,4.14994 -0.02917,3.42349 -0.995164,5.39508 -3.650741,7.45115 -0.867254,0.67147 -3.829556,1.94623 -4.522666,1.94623 -0.07735,0 -0.140639,-2.19591 -0.140639,-4.87979 0,-4.63082 -0.02787,-4.89931 -0.546283,-5.26242 -0.977791,-0.68487 -2.410346,0.2284 -1.820558,1.16063 0.133138,0.21044 0.243896,1.06723 0.246123,1.90397 0.0035,1.31869 -0.06279,1.52136 -0.497707,1.52136 -0.610338,0 -2.072645,-1.60766 -2.305238,-2.53438 -0.09285,-0.36992 -0.103285,-1.1611 -0.0232,-1.75818 0.498274,-3.71491 5.426046,-4.58643 7.121562,-1.2595 0.38795,0.76123 0.431202,1.38157 0.293857,4.21452 l -0.161047,3.32191 0.756883,-0.66146 c 1.72779,-1.50995 2.491862,-3.10129 2.491862,-5.1898 0,-1.79694 -0.536184,-3.11552 -1.798858,-4.42376 -1.282273,-1.32855 -2.704345,-2.03957 -4.436821,-2.21838 -4.886486,-0.50433 -8.491804,3.32712 -7.522826,7.99466 0.48578,2.33998 2.824967,4.62981 5.660252,5.5408 0.46173,0.14836 0.48963,0.37785 0.358434,2.94842 l -0.142269,2.78755 1.493649,-0.16521 c 0.821505,-0.0909 2.272498,-0.39142 3.224427,-0.6679 z m -0.540155,6.24429 c 4.159599,-0.75471 7.650096,-2.71941 10.717686,-6.03269 2.029478,-2.19203 3.895521,-5.73602 4.346897,-8.25563 0.468479,-2.61508 0.501216,-2.55043 -1.240104,-2.4492 l -1.521355,0.0884 -0.183118,1.64115 c -0.605123,5.42328 -6.037508,10.77897 -12.252298,12.0793 -3.83863,0.80316 -6.646804,0.44208 -10.340379,-1.32962 -4.177035,-2.00359 -6.848927,-5.47826 -7.922212,-10.30246 l -0.44365,-1.99413 h -1.42865 c -1.651733,0 -1.62868,-0.0615 -1.032007,2.75496 0.534572,2.52336 1.610717,4.68688 3.530139,7.09713 4.514228,5.66858 10.670262,7.99072 17.769051,6.70274 z m -6.298972,3.25926 c -8.620035,-1.06497 -16.108872,-8.0903 -17.907793,-16.79943 -2.275935,-11.0185 4.665085,-22.38993 15.43754,-25.29122 2.76375,-0.74435 8.396226,-0.80294 10.885892,-0.11323 6.368314,1.76418 11.358339,5.93872 14.140904,11.82994 1.544899,3.27084 1.869276,4.8953 1.844453,9.23693 -0.02035,3.56032 -0.0819,4.01827 -0.855105,6.3624 -1.470813,4.45912 -4.803999,8.77397 -8.746013,11.32181 -4.280183,2.76642 -9.845757,4.06486 -14.799878,3.4528 z m 8.944805,2.32272 c 4.974458,-1.29454 8.468561,-3.34491 11.943175,-7.00834 4.73856,-4.99607 6.819463,-10.72835 6.500357,-17.9066 -0.492551,-11.07983 -8.174466,-20.25385 -18.956548,-22.6386 -4.545333,-1.00532 -10.565106,-0.48924 -14.736423,1.26336 -6.08606,2.55709 -11.654189,8.82979 -14.025496,15.80022 -2.763536,8.12339 -0.04481,18.32926 6.569704,24.66212 3.652293,3.49678 7.772916,5.50477 13.444815,6.55169 1.688015,0.31158 6.824411,-0.0899 9.260416,-0.72385 z m -6.31222,15.7984 c -0.145928,-0.56421 -0.621299,-2.40582 -1.056383,-4.09246 -0.435083,-1.68663 -1.051184,-3.62 -1.369113,-4.29637 -1.13683,-2.41849 -3.164051,-3.48602 -5.376867,-2.83143 -0.821653,0.24306 -1.676982,0.91451 -3.389662,2.66092 l -2.290701,2.33583 -0.09566,-3.75116 c -0.110548,-4.33479 -0.410983,-5.23174 -1.919105,-5.72947 -1.742257,-0.57499 -4.979127,0.39667 -9.167182,2.75187 -1.195155,0.6721 -2.219352,1.17567 -2.275991,1.11903 -0.05664,-0.0566 0.795906,-1.82926 1.894549,-3.93915 2.540807,-4.87951 2.684086,-6.31973 0.832048,-8.36348 -1.070025,-1.18079 -1.786162,-1.36393 -5.333566,-1.36393 h -3.342383 l 2.119712,-1.99407 c 2.967852,-2.79194 3.767254,-4.63885 2.809494,-6.49095 -0.698532,-1.35081 -2.340591,-2.26449 -6.6525,-3.70161 -2.77027,-0.9233 -3.995881,-1.44534 -3.752935,-1.59854 0.198419,-0.12511 1.1942,-0.47802 2.212845,-0.78424 1.018646,-0.30622 2.677044,-0.80807 3.685328,-1.11523 3.13517,-0.9551 4.91363,-2.80763 4.91363,-5.11828 0,-1.42773 -1.200832,-3.2043 -3.375548,-4.99395 -0.884159,-0.7276 -1.617695,-1.38245 -1.630085,-1.45521 -0.01238,-0.0728 1.283372,-0.0952 2.879471,-0.0498 2.433918,0.0692 3.092389,-0.002 4.082354,-0.43964 1.494565,-0.66112 2.575435,-2.2196 2.738683,-3.94883 0.108773,-1.15221 -0.05167,-1.57712 -2.045576,-5.41746 -1.189984,-2.29195 -2.082212,-4.16718 -1.982731,-4.16718 0.09948,0 1.389186,0.64128 2.866008,1.42508 3.580583,1.90033 5.08395,2.36488 7.214169,2.22924 1.419212,-0.0904 1.822561,-0.22824 2.423245,-0.82831 0.705487,-0.70477 0.723759,-0.80459 0.869246,-4.74952 0.08174,-2.21629 0.171032,-3.89285 0.198437,-3.7257 0.0274,0.16717 0.880036,1.19291 1.894734,2.27944 3.086502,3.305 5.380532,3.86404 7.504073,1.82869 1.44518,-1.38516 1.919282,-2.46141 3.196402,-7.25611 0.622392,-2.33665 1.19276,-4.14092 1.267483,-4.00949 0.07472,0.13143 0.575363,1.84631 1.112534,3.81084 0.537167,1.96453 1.155573,4.06886 1.37423,4.67629 0.958273,2.66207 2.941108,4.27454 4.826613,3.92508 1.42471,-0.26406 2.442718,-0.98823 4.527693,-3.2208 l 1.869736,-2.00209 -0.0412,3.41038 c -0.04776,3.95393 0.214209,4.75626 1.808474,5.53872 2.052069,1.00715 4.92606,0.36041 9.390925,-2.11324 1.411438,-0.78197 2.624624,-1.3634 2.695966,-1.29205 0.156565,0.15656 -1.88954,4.04665 -3.220008,6.12193 -1.850313,2.88615 -1.329788,5.95517 1.256573,7.40879 1.022746,0.57482 1.33846,0.61254 4.405031,0.52632 3.236984,-0.091 3.291097,-0.0832 2.694546,0.39034 -1.355093,1.07559 -3.986342,3.78001 -4.336441,4.45703 -0.478827,0.92594 -0.478885,2.68928 -1.22e-4,3.60571 0.818925,1.56755 2.82272,2.87306 5.315289,3.46303 2.453531,0.58072 5.159374,1.42827 5.159374,1.61607 0,0.10258 -1.875234,0.80143 -4.167187,1.553 -2.410844,0.79055 -4.531818,1.65338 -5.032327,2.04718 -2.580942,2.03071 -2.065867,4.38034 1.805813,8.23761 l 1.922079,1.91492 -3.160713,-0.0309 c -2.720385,-0.0266 -3.3114,0.0459 -4.242366,0.52087 -2.045906,1.04374 -3.027659,2.87682 -2.595224,4.84569 0.105395,0.47985 1.073777,2.57275 2.151965,4.65089 1.078188,2.07814 1.91479,3.77844 1.859116,3.77844 -0.05567,0 -1.469938,-0.70522 -3.142805,-1.56715 -3.649552,-1.8804 -6.446509,-2.79695 -7.774821,-2.54775 -0.511646,0.096 -1.311952,0.51526 -1.778458,0.93173 l -0.848196,0.75722 -0.132291,3.99216 -0.132292,3.99217 -1.97054,-2.15575 c -3.134799,-3.42944 -5.323009,-3.9972 -7.439675,-1.93033 -1.27185,1.24193 -1.809949,2.50405 -3.038419,7.12665 -0.541417,2.0373 -1.078685,3.80861 -1.193933,3.93626 -0.115244,0.12766 -0.328932,-0.22953 -0.474861,-0.79375 z"
       inkscape:connector-curvature="0" />
    <path
       id="path939"
       style="fill:#000000;stroke-width:0.26458332"
       d="m -32.526025,262.01334 c -0.88594,-1.74879 -2.06319,-4.78629 -4.79398,-12.36927 -4.03643,-11.20852 -5.82621,-14.5268 -9.83939,-18.24239 -8.603653,-7.96567 -21.086373,-5.32453 -27.456713,5.80938 -1.58609,2.77213 -2.7906,5.66984 -5.27809,12.6976 -2.46757,6.97146 -4.81948,12.82957 -5.15144,12.83118 -0.12492,5.3e-4 -0.16253,-0.26678 -0.0836,-0.59421 0.16814,-0.69736 1.1941,-7.94982 2.16152,-15.27968 1.47729,-11.19309 3.86429,-18.59954 8.01554,-24.87083 2.82919,-4.27407 7.41344,-8.14811 11.33937,-9.58265 2.39319,-0.87448 6.89413,-0.97823 9.261243,-0.2135 7.93082,2.56218 14.8147,11.64299 18.05964,23.8232 1.0479,3.9334 1.16683,4.58443 2.41603,13.22503 0.57856,4.00182 1.26355,8.73455 1.52219,10.51718 0.25864,1.78263 0.43876,3.24115 0.40027,3.24115 -0.0385,0 -0.29616,-0.44648 -0.57261,-0.99219 z m -18.97237,14.01317 c -0.0156,-3.06531 -1.03933,-4.73339 -3.599963,-5.86608 -1.82221,-0.80605 -3.29937,-0.92755 -5.23816,-0.43086 -2.24638,0.5755 -3.30581,1.27489 -4.17757,2.75784 -0.60924,1.03638 -0.72526,1.5385 -0.72526,3.13874 0,2.39692 0.22815,2.65327 1.66416,1.86984 1.086,-0.59247 1.09877,-0.61655 1.04058,-1.96097 -0.0689,-1.59172 0.39141,-2.27086 2.05776,-3.03605 3.08914,-1.41854 6.691493,0.511 6.394713,3.42523 -0.11059,1.08597 -0.0614,1.18468 0.95891,1.92378 0.75618,0.54777 1.15857,0.69598 1.35536,0.49919 0.15394,-0.15394 0.2752,-1.19824 0.26947,-2.32066 z M -66.137338,248.9464 c 0.43337,-4.03091 3.44466,-6.70477 7.53933,-6.6945 1.58561,0.004 2.15592,0.14112 3.65411,0.87867 1.219963,0.60058 2.019333,1.21089 2.555533,1.95109 0.83189,1.1484 1.56881,3.2519 1.56881,4.47814 0,0.59052 0.12391,0.75026 0.59531,0.76749 0.32742,0.012 0.94037,0.0779 1.3621,0.14659 l 0.76679,0.12483 -0.17342,-1.65925 c -0.32623,-3.12118 -2.17254,-6.09121 -4.85331,-7.80718 -3.828423,-2.45057 -8.686623,-2.14098 -11.855853,0.75552 -1.73854,1.58893 -2.79196,3.51456 -3.4032,6.221 -0.23655,1.04738 -0.43009,1.96138 -0.43009,2.03112 0,0.21039 0.87622,0.38325 1.71979,0.33928 0.76255,-0.0397 0.80005,-0.1 0.9541,-1.5328 z m 8.74851,2.50875 c 0.60288,-0.54561 0.62717,-1.87563 0.046,-2.51785 -0.54561,-0.60289 -1.87563,-0.62717 -2.51785,-0.046 -0.60289,0.54561 -0.62717,1.87563 -0.046,2.51785 0.5456,0.60288 1.87563,0.62717 2.51785,0.046 z m -3.05286,1.4766 c -2.2284,-1.75286 -1.79767,-4.87633 0.79716,-5.78059 1.01333,-0.35313 1.15909,-0.33688 2.37262,0.26458 1.76885,0.87669 2.42238,2.15169 1.91208,3.73031 -0.44067,1.36321 -1.28709,1.97323 -3.02606,2.18091 -1.12341,0.13417 -1.46671,0.0682 -2.0558,-0.39521 z m 4.49782,2.1193 c 2.897143,-1.40248 3.878103,-5.78426 1.895333,-8.46611 -1.440363,-1.94819 -4.870843,-2.66997 -7.096373,-1.49308 -3.90591,2.06549 -4.08952,7.96931 -0.30993,9.96544 1.37077,0.72395 4.00876,0.72096 5.51097,-0.006 z m 1.695013,4.91813 c 2.59433,-1.29387 5.07782,-4.19837 5.82882,-6.81694 l 0.20937,-0.73004 -1.37059,0.001 -1.3706,0.001 -0.48453,1.17828 c -0.5722,1.39147 -2.14301,2.89107 -3.848713,3.67424 -1.84763,0.84834 -4.9718,0.79626 -6.91556,-0.11527 -1.76043,-0.82557 -3.1517,-2.22073 -3.734,-3.74444 -0.40396,-1.05703 -0.50078,-1.13225 -1.55789,-1.21022 l -1.12716,-0.0832 0.17544,1.0972 c 0.37259,2.32999 2.2195,4.86696 4.53425,6.22835 2.75483,1.62022 6.99727,1.84857 9.661163,0.52001 z m -6.917643,3.43206 c -2.3989,-0.47803 -4.29757,-1.50413 -6.0784,-3.28496 -2.50932,-2.50932 -3.683,-5.51351 -3.683,-9.42714 0,-4.37045 1.5772,-8.33307 4.33176,-10.88331 5.02567,-4.65289 11.72429,-4.51983 16.479943,0.32733 4.25092,4.33273 5.29815,11.71682 2.45929,17.34059 -1.54297,3.05659 -4.24848,5.0234 -8.109683,5.89544 -2.2183,0.50101 -3.02258,0.50578 -5.39991,0.032 z m -8.30336,18.6623 c -0.54247,-1.53753 -0.55026,-7.60722 -0.0121,-9.41884 1.18433,-3.98676 4.90715,-6.60807 9.83577,-6.92555 5.613333,-0.3616 10.086473,1.83094 11.880573,5.82334 1.1198,2.49185 1.21778,7.30052 0.22345,10.96564 l -0.15868,0.5849 1.08167,-0.52261 c 1.49387,-0.72176 1.9052,-1.67147 2.22328,-5.13326 0.24285,-2.64305 0.21502,-3.13254 -0.2913,-5.12317 -0.9287,-3.65126 -2.73084,-6.11665 -5.30822,-7.26183 l -1.16021,-0.51551 0.89563,-0.42482 c 2.58116,-1.22432 5.46467,-5.35383 6.49976,-9.30838 0.59304,-2.26573 0.57978,-6.43752 -0.0278,-8.73125 -1.0433,-3.93897 -4.08092,-8.42532 -6.95206,-10.26773 -2.46109,-1.57927 -4.048863,-1.98131 -7.884723,-1.99648 -2.95176,-0.0117 -3.64993,0.0697 -4.92265,0.57374 -4.32074,1.71114 -7.51599,5.28469 -9.15173,10.23526 -0.91672,2.77443 -1.14262,7.51679 -0.49118,10.31144 0.89728,3.84932 3.29045,7.52633 5.88999,9.04976 l 1.18505,0.69448 -0.8042,0.33814 c -1.29967,0.54647 -3.20818,2.49299 -3.99097,4.07045 -1.18714,2.39229 -1.47264,3.83042 -1.47264,7.41802 0,4.03813 0.47606,5.42256 2.15172,6.2573 0.5628,0.28037 1.05431,0.49402 1.09225,0.47479 0.0379,-0.0192 -0.1109,-0.54475 -0.33073,-1.16783 z m 8.46384,16.27464 c -7.37008,-3.60705 -19.95934,-15.29288 -25.89475,-24.03649 -1.84571,-2.71897 -1.84379,-2.76506 0.2072,-4.98032 2.4346,-2.62959 5.05367,-7.08551 6.90035,-11.7398 0.40417,-1.01864 1.72954,-4.75774 2.94527,-8.30909 2.5253,-7.37685 3.56017,-9.63383 5.75216,-12.545 5.65003,-7.50378 13.56483,-9.04633 20.977553,-4.0884 4.20179,2.81032 6.7166,7.11162 10.01954,17.13728 3.31826,10.07216 6.06781,15.61741 9.87973,19.9253 0.7479,0.84521 1.35982,1.69068 1.35982,1.87882 0,0.59088 -1.31137,2.85653 -2.84701,4.9188 -6.2734,8.42475 -17.0107,18.09845 -23.936703,21.56562 -1.30583,0.6537 -2.63003,1.18656 -2.94266,1.18413 -0.31263,-0.002 -1.40186,-0.41231 -2.4205,-0.91085 z"
       inkscape:connector-curvature="0" />
    <path
       id="path925"
       style="fill:#000000;stroke-width:0.26458332"
       d="m -42.888117,77.298939 c -0.82606,-4.13113 -3.65842,-8.04405 -7.16766,-9.90213 -1.68307,-0.89117 -4.05155,-1.67339 -5.0668,-1.67339 -0.59567,0 -0.62271,0.0752 -0.54728,1.52126 l 0.0794,1.52127 1.51061,0.18767 c 4.13451,0.51364 7.19442,3.65396 8.26053,8.47761 0.15189,0.68723 0.24244,0.7276 1.632,0.7276 h 1.47119 z m -25.00552,0.62318 c 0,-0.27571 0.25106,-1.31412 0.5579,-2.30756 0.48806,-1.58017 0.79442,-2.04219 2.44739,-3.691 1.91193,-1.9071 3.98292,-3.02514 5.60359,-3.02514 0.62144,0 0.65154,-0.0749 0.65154,-1.62132 v -1.62132 l -1.12448,0.1689 c -0.61847,0.0929 -2.11818,0.65532 -3.3327,1.24984 -3.77143,1.84617 -6.37799,5.05423 -7.30626,8.99227 -0.57306,2.43117 -0.60621,2.35663 1.04781,2.35663 1.25185,0 1.45521,-0.07 1.45521,-0.5013 z m 11.94899,6.8725 c 0.0774,-2.49831 0.1701,-2.99803 0.68486,-3.69346 0.32743,-0.44233 0.59532,-1.1576 0.59532,-1.58949 0,-1.6024 -2.53044,-2.52656 -3.70417,-1.35284 -0.62693,0.62694 -0.70903,2.16359 -0.14569,2.72693 0.47553,0.47553 0.78632,2.82678 0.44156,3.34046 -0.40594,0.6048 -2.25373,-0.0737 -3.05239,-1.12075 -2.70211,-3.54265 -0.0576,-8.64099 4.4864,-8.64933 1.15853,-0.002 3.00728,1.02958 3.93552,2.19625 0.67881,0.85317 0.81697,1.28484 0.90395,2.82418 0.0871,1.54072 -0.002,2.03895 -0.5875,3.27599 -0.48626,1.02786 -0.69018,1.89373 -0.69018,2.93051 0,0.80938 0.0654,1.4716 0.14543,1.4716 0.40973,0 1.67229,-0.85071 2.4207,-1.63108 1.43928,-1.50071 2.06163,-3.21766 2.04617,-5.64497 -0.0178,-2.79359 -0.72398,-4.43156 -2.68221,-6.22128 -2.43383,-2.22438 -5.40732,-2.66442 -8.94155,-1.32323 -3.19896,1.21395 -4.97597,3.97998 -4.94106,7.69104 0.0226,2.40543 0.78083,4.14355 2.46995,5.66221 1.53208,1.37747 2.98154,1.94706 5.02739,1.97558 l 1.49794,0.0209 0.0896,-2.88921 z m 4.29028,14.27463 c 5.4915,-1.40449 9.98433,-5.11253 12.59785,-10.39729 1.39978,-2.8305 1.83475,-4.50075 2.01436,-7.735 0.32122,-5.78417 -1.44486,-10.67768 -5.40386,-14.97323 -3.18268,-3.45323 -6.98135,-5.37776 -11.99958,-6.07938 -6.5868,-0.92092 -13.32701,1.86203 -17.57793,7.25772 -4.6375,5.88639 -5.80649,14.35025 -2.89213,20.94013 2.34725,5.30755 7.84236,9.9243 12.92395,10.85813 l 1.00713,0.18509 -0.0811,-1.41294 -0.0811,-1.41294 -1.85209,-0.68834 c -2.89554,-1.07615 -3.55687,-1.50535 -5.85173,-3.79774 -3.41194,-3.40826 -4.86773,-7.01579 -4.85998,-12.0433 0.008,-5.0965 1.61424,-9.03775 5.00339,-12.27572 3.62543,-3.46371 7.12501,-4.96864 11.66145,-5.01478 3.09411,-0.0315 4.77966,0.34536 7.64409,1.70896 1.76996,0.84258 2.65927,1.49431 4.38573,3.21407 1.19107,1.18645 2.47327,2.71859 2.84932,3.40475 2.92584,5.33861 3.02714,12.17372 0.25992,17.53785 -1.13949,2.20885 -4.27098,5.45514 -6.32242,6.55422 -1.449,0.77632 -4.95263,1.78016 -6.21313,1.78016 -0.60201,0 -0.75201,-0.11838 -0.75434,-0.59532 -0.002,-0.32742 -0.0737,-1.0234 -0.16028,-1.54662 l -0.15737,-0.95132 1.81393,-0.1677 c 4.92327,-0.45516 9.55508,-4.88167 10.65181,-10.17967 0.49411,-2.38693 0.47421,-2.43437 -1.02069,-2.43437 -1.30885,0 -1.31119,0.002 -1.47749,0.99218 -0.47118,2.80679 -1.38005,4.49722 -3.42069,6.36225 -2.21721,2.0264 -3.78347,2.54542 -7.68152,2.54542 -3.97006,0 -5.48223,-0.51561 -7.79678,-2.65848 -1.70176,-1.57553 -2.71503,-3.32523 -3.21219,-5.54676 l -0.32003,-1.43003 h -1.4131 c -1.63398,0 -1.64966,0.0389 -1.00798,2.50255 1.27906,4.91063 5.40792,8.73476 10.56499,9.78522 l 1.59759,0.32542 0.0748,2.95382 0.0748,2.95382 h 2.19797 c 1.32018,0 3.01125,-0.208 4.23439,-0.52083 z m -8.85089,3.171771 c -3.614,-0.4657 -8.08477,-2.385921 -10.97362,-4.713231 -2.20725,-1.7782 -3.91635,-4.00279 -5.42851,-7.06583 -1.95017,-3.95031 -2.23333,-5.28417 -2.21858,-10.45104 0.0121,-4.23759 0.0368,-4.42973 0.84243,-6.55122 0.88252,-2.32399 1.96918,-4.26141 4.19073,-7.4717 1.71721,-2.48148 2.52072,-4.0754 3.70232,-7.34422 2.62174,-7.25292 5.61998,-10.61269 10.80705,-12.11016 2.12908,-0.61465 5.33138,-0.43668 7.25823,0.40337 4.17189,1.81883 7.03678,5.42722 9.24882,11.64908 1.26285,3.55204 1.72354,4.4741 3.63198,7.26932 4.28553,6.27682 5.23381,8.94271 5.19603,14.60736 -0.063,9.44154 -5.99415,17.7996 -14.80581,20.863991 -3.12014,1.08508 -7.44559,1.43043 -11.45107,0.91428 z m 10.39369,2.27366 c 4.62233,-1.17896 8.66268,-3.58471 12.14619,-7.232211 4.40578,-4.61318 6.58424,-10.29619 6.58424,-17.17645 0,-3.40654 -0.44731,-5.79678 -1.61451,-8.62727 -0.85645,-2.07692 -1.0718,-2.45419 -4.01354,-7.03149 -1.488,-2.3153 -2.52919,-4.35094 -3.59153,-7.02182 -2.30709,-5.80039 -4.32935,-8.70406 -7.96861,-11.44183 -2.37899,-1.78967 -4.30476,-2.50958 -7.15348,-2.67417 -4.46507,-0.25798 -8.25897,1.272 -11.69329,4.71562 -1.77015,1.77495 -2.24383,2.46776 -3.62769,5.30587 -0.87544,1.7954 -1.94536,4.24701 -2.3776,5.44802 -0.43225,1.20102 -1.16852,2.74883 -1.63616,3.43959 -1.68923,2.49517 -4.54145,7.28575 -5.28915,8.88362 -1.29978,2.77773 -1.83516,5.41761 -1.82871,9.01722 0.0123,6.87423 2.17704,12.45698 6.68693,17.24528 6.29697,6.685711 16.22748,9.483661 25.37691,7.150021 z m -13.28415,3.16114 c -12.00041,-1.72317 -22.97206,-7.921271 -29.76271,-16.813531 -2.79136,-3.65525 -3.20996,-5.06884 -2.35687,-7.95908 1.30732,-4.42918 2.94962,-7.10247 6.57187,-10.6975 1.61285,-1.60073 3.48583,-3.63163 4.16217,-4.51311 2.40054,-3.12863 4.86416,-8.5437 6.67384,-14.66918 0.36543,-1.23693 1.27358,-4.33255 2.01811,-6.87917 1.52439,-5.21405 2.5123,-7.83772 3.86258,-10.25816 3.29519,-5.90674 8.70949,-9.14264 15.3133,-9.1521 5.74426,-0.008 10.455,2.33807 14.03491,6.99044 2.37127,3.08164 3.79112,6.51772 6.0614,14.66878 2.43592,8.74576 4.57113,14.11861 7.15276,17.99856 0.8803,1.323 2.87957,3.66844 4.6997,5.51342 3.28905,3.33397 4.8865,5.50052 6.10703,8.28266 1.00349,2.2874 1.60233,4.88001 1.38938,6.01514 -0.40454,2.15639 -5.28887,8.05665 -9.54727,11.53308 -6.2159,5.074491 -12.97317,8.172621 -21.16666,9.704661 -2.98671,0.55847 -11.99236,0.69763 -15.21354,0.23509 z"
       inkscape:connector-curvature="0" />
  </g>
</svg>
