<?xml version="1.0" encoding="UTF-8" standalone="no"?>
<!-- Created with Inkscape (http://www.inkscape.org/) -->

<svg
   xmlns:dc="http://purl.org/dc/elements/1.1/"
   xmlns:cc="http://creativecommons.org/ns#"
   xmlns:rdf="http://www.w3.org/1999/02/22-rdf-syntax-ns#"
   xmlns:svg="http://www.w3.org/2000/svg"
   xmlns="http://www.w3.org/2000/svg"
   xmlns:xlink="http://www.w3.org/1999/xlink"
   xmlns:sodipodi="http://sodipodi.sourceforge.net/DTD/sodipodi-0.dtd"
   xmlns:inkscape="http://www.inkscape.org/namespaces/inkscape"
   width="210mm"
   height="297mm"
   viewBox="0 0 210 297"
   version="1.1"
   id="svg8"
   inkscape:version="0.92.5 (2060ec1f9f, 2020-04-08)"
   sodipodi:docname="shadow.svg">
  <defs
     id="defs2">
    <clipPath
       clipPathUnits="userSpaceOnUse"
       id="clipPath854">
      <circle
         style="opacity:1;fill:none;fill-opacity:0.4950981;stroke:#ff0000;stroke-width:3.77952766;stroke-linecap:round;stroke-linejoin:round;stroke-miterlimit:4;stroke-dasharray:none;stroke-dashoffset:0;stroke-opacity:1"
         id="circle856"
         r="85.359505"
         cy="308.1362"
         cx="263.44928" />
    </clipPath>
  </defs>
  <sodipodi:namedview
     id="base"
     pagecolor="#ffffff"
     bordercolor="#666666"
     borderopacity="1.0"
     inkscape:pageopacity="0.0"
     inkscape:pageshadow="2"
     inkscape:zoom="0.76257015"
     inkscape:cx="396.85039"
     inkscape:cy="561.25984"
     inkscape:document-units="mm"
     inkscape:current-layer="layer1"
     showgrid="false"
     inkscape:snap-center="true"
     inkscape:window-width="1920"
     inkscape:window-height="1016"
     inkscape:window-x="0"
     inkscape:window-y="27"
     inkscape:window-maximized="1" />
  <metadata
     id="metadata5">
    <rdf:RDF>
      <cc:Work
         rdf:about="">
        <dc:format>image/svg+xml</dc:format>
        <dc:type
           rdf:resource="http://purl.org/dc/dcmitype/StillImage" />
        <dc:title></dc:title>
      </cc:Work>
    </rdf:RDF>
  </metadata>
  <g
     inkscape:label="Layer 1"
     inkscape:groupmode="layer"
     id="layer1">
    <path
       style="color:#000000;font-style:normal;font-variant:normal;font-weight:normal;font-stretch:normal;font-size:medium;line-height:normal;font-family:sans-serif;font-variant-ligatures:normal;font-variant-position:normal;font-variant-caps:normal;font-variant-numeric:normal;font-variant-alternates:normal;font-feature-settings:normal;text-indent:0;text-align:start;text-decoration:none;text-decoration-line:none;text-decoration-style:solid;text-decoration-color:#000000;letter-spacing:normal;word-spacing:normal;text-transform:none;writing-mode:lr-tb;direction:ltr;text-orientation:mixed;dominant-baseline:auto;baseline-shift:baseline;text-anchor:start;white-space:normal;shape-padding:0;clip-rule:nonzero;display:inline;overflow:visible;visibility:visible;opacity:1;isolation:auto;mix-blend-mode:normal;color-interpolation:sRGB;color-interpolation-filters:linearRGB;solid-color:#000000;solid-opacity:1;vector-effect:none;fill:#000000;fill-opacity:1;fill-rule:nonzero;stroke:none;stroke-width:15.11811066;stroke-linecap:butt;stroke-linejoin:miter;stroke-miterlimit:4;stroke-dasharray:none;stroke-dashoffset:0;stroke-opacity:1;color-rendering:auto;image-rendering:auto;shape-rendering:auto;text-rendering:auto;enable-background:accumulate"
       d="M 364.79102 117.40234 L 164.31445 233.15039 L 171.87305 246.24414 L 372.34961 130.49609 L 364.79102 117.40234 z M 364.79102 152.54688 L 164.31445 268.29492 L 171.87305 281.38281 L 372.34961 165.63477 L 364.79102 152.54688 z M 364.79102 187.68359 L 164.31445 303.43164 L 171.87305 316.52734 L 372.34961 200.7793 L 364.79102 187.68359 z M 364.79102 222.83008 L 164.31445 338.57812 L 171.87305 351.67383 L 372.34961 235.92578 L 364.79102 222.83008 z M 364.79102 257.97461 L 164.31445 373.72266 L 171.87305 386.81055 L 372.34961 271.0625 L 364.79102 257.97461 z M 364.79102 293.11328 L 164.31445 408.86133 L 171.87305 421.95703 L 372.34961 306.20898 L 364.79102 293.11328 z M 364.79102 328.25781 L 164.31445 444.00586 L 171.87305 457.10156 L 372.34961 341.35352 L 364.79102 328.25781 z M 364.79102 363.40234 L 164.31445 479.15039 L 171.87305 492.23828 L 372.34961 376.49023 L 364.79102 363.40234 z "
       transform="scale(0.26458333)"
       id="path815"
       clip-path="url(#clipPath854)" />
    <path
       clip-path="url(#clipPath854)"
       id="path858"
       transform="matrix(0.26458333,0,0,0.26458333,58.208336,0)"
       d="m 364.79102,117.40234 -200.47657,115.74805 7.5586,13.09375 200.47656,-115.74805 z m 0,35.14454 -200.47657,115.74804 7.5586,13.08789 200.47656,-115.74804 z m 0,35.13671 -200.47657,115.74805 7.5586,13.0957 200.47656,-115.74804 z m 0,35.14649 -200.47657,115.74804 7.5586,13.09571 200.47656,-115.74805 z m 0,35.14453 -200.47657,115.74805 7.5586,13.08789 200.47656,-115.74805 z m 0,35.13867 -200.47657,115.74805 7.5586,13.0957 200.47656,-115.74805 z m 0,35.14453 -200.47657,115.74805 7.5586,13.0957 200.47656,-115.74804 z m 0,35.14453 -200.47657,115.74805 7.5586,13.08789 200.47656,-115.74805 z"
       style="color:#000000;font-style:normal;font-variant:normal;font-weight:normal;font-stretch:normal;font-size:medium;line-height:normal;font-family:sans-serif;font-variant-ligatures:normal;font-variant-position:normal;font-variant-caps:normal;font-variant-numeric:normal;font-variant-alternates:normal;font-feature-settings:normal;text-indent:0;text-align:start;text-decoration:none;text-decoration-line:none;text-decoration-style:solid;text-decoration-color:#000000;letter-spacing:normal;word-spacing:normal;text-transform:none;writing-mode:lr-tb;direction:ltr;text-orientation:mixed;dominant-baseline:auto;baseline-shift:baseline;text-anchor:start;white-space:normal;shape-padding:0;clip-rule:nonzero;display:inline;overflow:visible;visibility:visible;opacity:1;isolation:auto;mix-blend-mode:normal;color-interpolation:sRGB;color-interpolation-filters:linearRGB;solid-color:#000000;solid-opacity:1;vector-effect:none;fill:#000000;fill-opacity:1;fill-rule:nonzero;stroke:none;stroke-width:15.11811066;stroke-linecap:butt;stroke-linejoin:miter;stroke-miterlimit:4;stroke-dasharray:none;stroke-dashoffset:0;stroke-opacity:1;color-rendering:auto;image-rendering:auto;shape-rendering:auto;text-rendering:auto;enable-background:accumulate"
       inkscape:connector-curvature="0" />
    <path
       style="fill:#000000;fill-opacity:1;stroke:none;stroke-width:0.26458332px;stroke-linecap:butt;stroke-linejoin:miter;stroke-opacity:1"
       d="m 107.0129,78.66994 c 0,0 14.50182,8.130255 18.58099,6.089841 0.96275,-0.481571 0.93089,25.263459 0.93089,25.263459 -0.184,7.17619 -6.20348,-3.93632 -9.3693,-2.04431 -2.85848,1.70832 -9.38653,-6.6435 -9.10386,-14.187387 0.2235,-5.964704 -1.03872,-15.121603 -1.03872,-15.121603 z"
       id="path860"
       inkscape:connector-curvature="0"
       sodipodi:nodetypes="cscssc"
       inkscape:transform-center-x="10.540801"
       inkscape:transform-center-y="-1.6421046" />
    <use
       x="0"
       y="0"
       xlink:href="#path860"
       inkscape:transform-center-x="-10.540804"
       inkscape:transform-center-y="-1.6421046"
       id="use862"
       transform="matrix(-1,0,0,1,255.82525,3.3333315e-8)"
       width="100%"
       height="100%" />
  </g>
</svg>
