<?xml version="1.0" encoding="UTF-8" standalone="no"?>
<!-- Created with Inkscape (http://www.inkscape.org/) -->

<svg
   xmlns:dc="http://purl.org/dc/elements/1.1/"
   xmlns:cc="http://creativecommons.org/ns#"
   xmlns:rdf="http://www.w3.org/1999/02/22-rdf-syntax-ns#"
   xmlns:svg="http://www.w3.org/2000/svg"
   xmlns="http://www.w3.org/2000/svg"
   xmlns:sodipodi="http://sodipodi.sourceforge.net/DTD/sodipodi-0.dtd"
   xmlns:inkscape="http://www.inkscape.org/namespaces/inkscape"
   width="10mm"
   height="10mm"
   viewBox="0 0 35.433071 35.433071"
   id="svg11061"
   version="1.1"
   inkscape:version="0.91 r13725"
   sodipodi:docname="suits.svg">
  <defs
     id="defs11063" />
  <sodipodi:namedview
     id="base"
     pagecolor="#ffffff"
     bordercolor="#666666"
     borderopacity="1.0"
     inkscape:pageopacity="0.0"
     inkscape:pageshadow="2"
     inkscape:zoom="8"
     inkscape:cx="7.2991823"
     inkscape:cy="11.099511"
     inkscape:document-units="px"
     inkscape:current-layer="layer2"
     showgrid="false"
     inkscape:snap-bbox="true"
     inkscape:snap-bbox-midpoints="true"
     inkscape:window-width="1600"
     inkscape:window-height="876"
     inkscape:window-x="0"
     inkscape:window-y="24"
     inkscape:window-maximized="1" />
  <metadata
     id="metadata11066">
    <rdf:RDF>
      <cc:Work
         rdf:about="">
        <dc:format>image/svg+xml</dc:format>
        <dc:type
           rdf:resource="http://purl.org/dc/dcmitype/StillImage" />
        <dc:title></dc:title>
      </cc:Work>
    </rdf:RDF>
  </metadata>
  <g
     inkscape:groupmode="layer"
     id="layer2"
     inkscape:label="bg">
    <rect
       style="opacity:1;fill:#ffffff;fill-opacity:1;stroke:none;stroke-width:1.20000005;stroke-linecap:round;stroke-linejoin:round;stroke-miterlimit:2;stroke-dasharray:none;stroke-dashoffset:0;stroke-opacity:1"
       id="rect11655"
       width="35.433071"
       height="35.433071"
       x="0"
       y="1.3429565e-07" />
  </g>
  <g
     inkscape:label="suit_anvil"
     inkscape:groupmode="layer"
     id="layer1"
     transform="translate(0,-1016.9291)"
     style="display:inline">
    <g
       transform="translate(-90.282722,999.51159)"
       style="display:inline"
       id="g118660">
      <g
         style="display:inline"
         id="g12613"
         transform="matrix(1.0902375,0,0,-1.0902375,123.70849,35.7304)">
        <path
           d="m 0,0 c 0,-6.305 -6.451,-11.412 -14.41,-11.412 -7.958,0 -14.408,5.107 -14.408,11.412 0,6.305 6.45,11.414 14.407,11.414 C -6.451,11.414 0,6.305 0,0"
           style="fill:#d9b7b7;fill-opacity:1;fill-rule:nonzero;stroke:none"
           id="path12615"
           inkscape:connector-curvature="0" />
      </g>
      <g
         style="display:inline"
         id="g12617"
         transform="matrix(1.0902375,0,0,-1.0902375,122.39246,35.7283)">
        <path
           d="m 0,0 c 0,-5.775 -5.912,-10.457 -13.203,-10.457 -7.291,0 -13.202,4.682 -13.202,10.457 0,5.775 5.91,10.455 13.201,10.455 C -5.912,10.455 0,5.775 0,0"
           style="fill:#330000;fill-opacity:1;fill-rule:nonzero;stroke:none"
           id="path12619"
           inkscape:connector-curvature="0" />
      </g>
      <g
         style="display:inline"
         id="g12621"
         transform="matrix(1.0902375,0,0,-1.0902375,107.58857,31.9486)">
        <path
           d="M 0,0 C -0.397,-0.01 -2.034,-0.021 -2.456,-0.041 -2.73,-0.055 -3.064,-0.1 -3.187,-0.385 c -0.105,-0.25 -0.034,-0.621 -0.034,-0.875 0,-0.24 -0.002,-0.295 0,-0.535 10e-4,-0.09 0.019,-0.258 -0.104,-0.283 -0.073,-0.016 -0.146,0.012 -0.214,0.031 -0.068,0.02 -0.136,0.039 -0.202,0.059 -0.097,0.027 -0.336,0.144 -0.418,0.312 -0.058,0.117 -0.049,0.295 -0.039,0.453 0.002,0.051 0.005,0.096 0.005,0.135 l -0.002,0.076 c 0,0.071 0.008,0.18 -0.044,0.235 -0.023,0.021 -0.046,0.039 -0.074,0.052 -0.071,0.034 -0.15,0.039 -0.227,0.039 -1.715,0 -3.29,0.202 -4.821,0.969 -0.064,0.029 -0.126,0.065 -0.189,0.098 -0.034,0.019 -0.069,0.037 -0.103,0.056 -0.03,0.02 -0.059,0.045 -0.09,0.061 -0.061,0.025 -0.115,0.047 -0.157,0.1 -0.009,0.009 -0.016,0.025 -0.022,0.033 -0.01,0.008 -0.022,0.014 -0.031,0.017 -0.021,0.022 -0.03,0.041 -0.02,0.069 0.017,0.033 0.079,0.01 0.106,0.004 0.048,-0.012 0.084,-0.045 0.136,-0.051 0.013,-0.002 0.022,0 0.037,-0.008 0.011,-0.008 0.022,-0.017 0.041,-0.023 0.037,-0.016 0.075,-0.024 0.114,-0.034 0.065,-0.017 0.132,-0.031 0.197,-0.05 0.139,-0.041 0.277,-0.08 0.415,-0.116 0.15,-0.039 0.297,-0.08 0.446,-0.115 0.157,-0.037 0.315,-0.074 0.474,-0.105 0.165,-0.037 0.333,-0.063 0.5,-0.09 0.173,-0.029 0.347,-0.057 0.522,-0.074 0.178,-0.022 0.357,-0.039 0.539,-0.053 0.188,-0.01 0.376,-0.016 0.565,-0.018 0.195,-0.005 0.389,0.002 0.583,0.014 0.197,0.012 0.394,0.022 0.588,0.049 0.107,0.014 0.212,0.035 0.317,0.049 0.112,0.015 0.246,0.043 0.333,-0.032 0.012,-0.009 0.022,-0.021 0.034,-0.037 0.04,-0.056 0.04,-0.138 0.051,-0.205 0.006,-0.045 -10e-4,-0.092 -10e-4,-0.134 -0.002,-0.049 -0.003,-0.096 -0.003,-0.145 0,-0.184 0.008,-0.369 0.009,-0.553 l 0,-0.078 c 0,-0.043 -0.003,-0.092 -0.005,-0.146 -0.007,-0.118 -0.014,-0.278 0.017,-0.342 0.04,-0.082 0.206,-0.176 0.278,-0.197 0.034,-0.01 0.073,-0.016 0.107,-0.032 0.029,-0.009 0.054,-0.021 0.083,0.004 0.057,0.053 0.036,0.188 0.036,0.258 l 0,0.285 c -0.002,0.039 -0.002,0.074 -0.002,0.112 0,0.242 -10e-4,0.488 -0.013,0.732 -0.008,0.178 -0.009,0.375 0.069,0.545 0.158,0.357 0.844,0.248 1.137,0.228 0.412,-0.027 0.757,-0.029 1.168,-0.021 0.423,0.01 0.842,-0.024 1.264,-0.02 C 0.994,0.322 1.821,0.312 2.647,0.326 2.995,0.33 3.344,0.336 3.694,0.336 4.043,0.338 4.393,0.338 4.741,0.338 5.09,0.336 5.44,0.336 5.79,0.334 6.139,0.334 6.489,0.33 6.838,0.33 7.014,0.33 7.19,0.33 7.366,0.328 7.436,0.326 7.506,0.33 7.575,0.342 7.62,0.348 7.672,0.363 7.706,0.324 7.717,0.312 7.733,0.279 7.733,0.264 7.725,0.187 7.631,0.182 7.573,0.186 7.495,0.187 7.42,0.168 7.344,0.168 7.209,0.168 7.075,0.146 6.938,0.146 6.848,0.146 6.76,0.145 6.67,0.143 6.454,0.137 6.237,0.133 6.022,0.129 5.778,0.123 5.532,0.119 5.29,0.113 5.022,0.109 4.758,0.104 4.491,0.098 4.213,0.09 3.938,0.086 3.661,0.08 3.383,0.074 3.108,0.068 2.833,0.062 2.565,0.055 2.299,0.053 2.034,0.047 1.786,0.041 1.538,0.035 1.291,0.029 1.074,0.025 0.856,0.021 0.639,0.016 0.462,0.012 0.285,0.008 0.108,0.002 0.073,0.002 0.036,0.002 0,0 M 1.567,-5.301 C 1.561,-5.346 1.551,-5.373 1.536,-5.393 1.504,-5.424 1.458,-5.42 1.387,-5.42 1.24,-5.418 1.097,-5.414 0.953,-5.418 l -0.311,0 -0.338,0 -0.336,0 -0.329,0 -0.244,0 c -0.111,0.002 -0.22,-0.004 -0.331,-0.006 -0.044,0 -0.096,-0.002 -0.14,0.016 -0.069,0.027 -0.058,0.072 -0.066,0.138 -0.008,0.063 -0.005,0.125 -0.003,0.19 0.003,0.148 0.047,0.252 0.216,0.254 l 0.236,0 c 0.099,0 0.197,-0.002 0.297,-0.002 0.11,0.002 0.221,0.002 0.333,0.002 0.116,0 0.232,-0.002 0.349,-0.002 0.115,0 0.23,0.002 0.344,0.002 0.107,0 0.217,-0.002 0.324,-0.002 0.088,0 0.179,0.002 0.268,0.004 0.085,0.002 0.251,0.015 0.321,-0.045 0.051,-0.043 0.026,-0.176 0.026,-0.236 0,-0.065 0.004,-0.131 -0.002,-0.196 m 1.291,-2.187 c 0.375,-0.002 0.752,-0.004 1.127,-0.006 0.377,0 0.756,-0.002 1.133,0.002 0.095,0.002 0.191,0 0.287,0.004 0.037,0.002 0.133,0.011 0.146,-0.041 C 5.567,-7.602 5.405,-7.588 5.364,-7.59 5.288,-7.598 5.215,-7.611 5.141,-7.619 5.088,-7.625 5.038,-7.631 4.987,-7.639 4.944,-7.645 4.899,-7.658 4.854,-7.656 4.76,-7.652 4.659,-7.666 4.563,-7.676 4.354,-7.691 4.145,-7.707 3.934,-7.725 3.821,-7.732 3.704,-7.74 3.588,-7.748 3.026,-7.787 2.881,-7.906 2.774,-8.467 2.762,-8.527 2.735,-8.582 2.727,-8.645 2.713,-8.719 2.708,-8.795 2.711,-8.871 2.713,-8.908 2.7,-9.02 2.639,-8.963 2.596,-8.926 2.61,-8.84 2.61,-8.791 c 0,0.033 -0.008,0.064 -0.01,0.098 0,0.056 0.008,0.111 0,0.168 -0.006,0.07 -0.017,0.138 -0.031,0.207 -0.082,0.425 -0.326,0.72 -0.74,0.871 -0.964,0.345 -1.935,0.371 -2.911,0.056 -0.146,-0.046 -0.291,-0.105 -0.419,-0.187 -0.2,-0.129 -0.35,-0.299 -0.435,-0.522 C -1.981,-8.217 -1.995,-8.33 -2,-8.455 -2.004,-8.527 -2.013,-8.598 -2.019,-8.668 -2.026,-8.76 -2.021,-8.848 -2.027,-8.939 -2.03,-8.965 -2.034,-9.008 -2.064,-9.008 c -0.021,-0.002 -0.04,0.022 -0.047,0.037 -0.037,0.075 -0.015,0.158 -0.033,0.237 -0.023,0.097 -0.038,0.199 -0.058,0.298 -0.105,0.524 -0.258,0.651 -0.787,0.686 -0.12,0.008 -0.239,0.018 -0.359,0.025 -0.21,0.018 -0.42,0.034 -0.631,0.055 -0.103,0.01 -0.208,0.02 -0.313,0.031 -0.093,0.01 -0.191,0.034 -0.286,0.037 -0.046,0 -0.095,-0.007 -0.141,-0.002 -0.024,0.002 -0.119,0.004 -0.108,0.045 0.015,0.057 0.136,0.018 0.177,0.016 0.096,-0.004 0.195,0.004 0.294,0.006 0.354,0.008 0.71,0.016 1.065,0.021 0.356,0.008 0.711,0.016 1.067,0.028 0.106,0.002 0.216,0.039 0.311,0.084 1.471,0.72 2.937,0.72 4.406,0 0.109,-0.055 0.242,-0.084 0.365,-0.084 m 6.31,8.615 C 9.159,1.16 9.145,1.187 9.122,1.205 9.106,1.219 9.065,1.244 9.049,1.248 9.014,1.262 8.965,1.254 8.928,1.254 8.862,1.254 8.805,1.244 8.739,1.26 8.667,1.277 8.579,1.266 8.506,1.266 7.948,1.266 7.391,1.268 6.834,1.268 l -0.457,0 C 5.842,1.268 5.292,1.232 4.758,1.299 4.684,1.307 4.6,1.324 4.526,1.316 4.465,1.311 4.42,1.291 4.372,1.264 4.315,1.236 4.208,1.217 4.145,1.23 4.038,1.254 3.956,1.268 3.844,1.268 l -0.353,0 -1.672,0 -0.834,0 -0.421,0 C 0.443,1.268 0.321,1.289 0.199,1.281 0.101,1.273 0.015,1.268 -0.083,1.293 -0.162,1.311 -0.231,1.309 -0.307,1.279 -0.425,1.238 -0.55,1.244 -0.672,1.244 c -0.083,0 -0.164,-0.006 -0.243,0 -0.043,0.002 -0.074,0.016 -0.112,0.024 -0.07,0.011 -0.15,0 -0.22,0 l -0.302,0 c -0.037,0 -0.065,-0.012 -0.099,-0.012 -0.045,-0.002 -0.093,0.012 -0.14,0.012 l -0.183,0 -1.285,0 C -3.36,1.27 -3.521,1.293 -3.612,1.225 -3.717,1.148 -3.658,1.006 -3.716,0.908 -3.759,0.838 -3.857,0.85 -3.929,0.85 c -0.089,0.002 -0.175,0.007 -0.263,0.007 -0.021,0 -0.021,0 -0.034,-0.011 C -4.241,0.834 -4.241,0.824 -4.257,0.828 -4.272,0.83 -4.292,0.85 -4.31,0.852 -4.333,0.857 -4.354,0.857 -4.376,0.857 -4.581,0.859 -4.784,0.861 -4.99,0.863 c -0.114,0.002 -0.227,0 -0.34,0.004 -0.106,0 -0.216,0.028 -0.32,0 C -5.701,0.854 -5.73,0.846 -5.785,0.85 -5.854,0.859 -5.908,0.873 -5.98,0.873 -6.096,0.871 -6.21,0.895 -6.326,0.895 l -0.407,0 c -0.097,0 -0.178,-0.02 -0.272,-0.03 -0.165,-0.019 -0.322,-0.006 -0.49,0 C -7.57,0.867 -7.622,0.832 -7.694,0.824 -7.756,0.818 -7.819,0.805 -7.868,0.805 c -0.071,0 -0.108,0.011 -0.167,0.045 -0.066,0.033 -0.201,0.029 -0.273,0.029 l -0.112,0 c -0.072,0 -0.144,-0.01 -0.215,-0.012 -0.034,0 -0.067,-0.006 -0.101,-0.006 -0.018,0 -0.035,0 -0.052,0.006 -0.01,0.002 -0.022,0.008 -0.031,0.012 -0.03,0.01 -0.068,0.004 -0.1,0.004 -0.029,0 -0.06,-0.008 -0.088,0 -0.035,0.006 -0.068,0.01 -0.107,0.01 -0.077,0.002 -0.155,0.005 -0.232,0.007 -0.139,0.002 -0.278,0.006 -0.418,0.008 -0.07,0.002 -0.14,0.004 -0.21,0.004 -0.029,0 -0.056,0.004 -0.084,-0.008 -0.024,-0.008 -0.047,-0.021 -0.07,-0.033 -0.025,-0.012 -0.048,-0.029 -0.058,-0.055 -0.002,-0.013 -0.006,-0.025 -0.012,-0.037 -0.006,-0.013 -0.021,-0.023 -0.024,-0.039 -0.004,-0.013 0.002,-0.033 0.002,-0.047 0,-0.039 -0.006,-0.06 0.014,-0.095 0.018,-0.034 0.014,-0.073 0.039,-0.104 0.028,-0.035 0.055,-0.068 0.08,-0.105 0.066,-0.098 0.134,-0.194 0.204,-0.284 0.038,-0.05 0.079,-0.099 0.121,-0.148 0.017,-0.019 0.034,-0.051 0.064,-0.057 0.023,-0.004 0.062,0.006 0.076,-0.019 0.011,-0.018 0.005,-0.043 0.017,-0.061 0.013,-0.023 0.038,-0.043 0.053,-0.066 0.018,-0.025 0.041,-0.047 0.065,-0.066 0.018,-0.014 0.05,-0.024 0.064,-0.04 0.011,-0.011 0.011,-0.025 0.024,-0.035 0.009,-0.009 0.019,-0.017 0.03,-0.029 0.015,-0.021 0.027,-0.039 0.047,-0.055 0.082,-0.07 0.163,-0.14 0.249,-0.205 0.219,-0.16 0.46,-0.332 0.712,-0.437 0.05,-0.022 0.117,0.004 0.16,-0.022 0.049,-0.025 0.075,-0.082 0.122,-0.107 0.058,-0.029 0.108,-0.006 0.169,0 0.054,0.01 0.055,0.004 0.103,-0.039 0.043,-0.041 0.038,-0.061 0.064,-0.108 0.039,-0.078 0.216,-0.117 0.295,-0.117 0.066,-0.002 0.125,-0.025 0.188,-0.049 0.156,-0.049 0.309,-0.095 0.464,-0.14 0.094,-0.03 0.188,-0.051 0.279,-0.082 0.029,-0.01 0.05,-0.034 0.075,-0.041 0.038,-0.016 0.065,0.004 0.101,0.009 0.051,0.006 0.084,-0.003 0.127,-0.039 0.064,-0.052 0.09,-0.05 0.176,-0.058 0.059,-0.004 0.105,-0.037 0.162,-0.055 0.177,-0.055 0.355,-0.1 0.53,-0.154 0.683,-0.205 1.384,-0.369 2.044,-0.635 0.499,-0.201 0.819,-0.625 0.952,-1.137 0.018,-0.068 0.019,-0.125 0.013,-0.195 -0.009,-0.086 0.016,-0.148 0.056,-0.225 0.053,-0.103 0.005,-0.197 -0.011,-0.302 -0.014,-0.084 0.004,-0.174 0,-0.258 -0.001,-0.053 -0.025,-0.096 -0.048,-0.143 -0.024,-0.051 -0.032,-0.094 -0.041,-0.148 -0.007,-0.037 -0.011,-0.067 -0.01,-0.104 -0.002,-0.058 -0.023,-0.093 -0.04,-0.146 -0.027,-0.086 -0.058,-0.168 -0.091,-0.252 -0.06,-0.152 -0.191,-0.25 -0.307,-0.356 -0.128,-0.115 -0.275,-0.207 -0.429,-0.287 -0.065,-0.035 -0.135,-0.068 -0.202,-0.101 -0.726,-0.354 -1.509,-0.719 -2.069,-1.049 -0.076,-0.043 -0.129,-0.18 -0.133,-0.277 -0.002,-0.077 -0.003,-0.151 -0.005,-0.225 -0.001,-0.061 0.014,-0.117 0.014,-0.18 -0.005,-0.31 -0.015,-0.617 -0.015,-0.929 -10e-4,-0.219 0.096,-0.327 0.327,-0.323 l 0.448,0 c 0.132,0 0.265,0.002 0.398,0.002 l 0.197,0 c 0.057,0 0.115,-0.006 0.17,0.006 0.053,0.016 0.106,0.01 0.159,0.014 l 0.198,0 c 0.13,0.002 0.261,0.004 0.389,0.004 0.094,0 0.189,-0.01 0.278,0.011 0.049,0.012 0.115,0.016 0.161,-0.002 0.046,-0.019 0.094,-0.013 0.141,-0.023 0.088,-0.016 0.181,-0.008 0.273,-0.008 l 0.314,0 c 0.087,0 0.194,0.026 0.257,0.078 0.526,0.457 1.156,0.659 1.83,0.713 0.961,0.078 1.875,-0.066 2.652,-0.703 0.07,-0.059 0.185,-0.088 0.281,-0.088 0.262,0 0.528,-0.002 0.793,-0.002 0.035,0 0.074,-0.006 0.111,0 0.028,0.002 0.049,0.02 0.077,0.024 0.021,0.004 0.039,0.004 0.056,0 0.043,-0.01 0.096,-0.024 0.141,-0.026 0.119,-0.006 0.24,-0.008 0.361,-0.008 0.039,0 0.065,0.004 0.102,0.016 0.027,0.006 0.049,0.016 0.072,0.018 0.063,0.002 0.121,-0.014 0.184,-0.014 l 0.058,0 c 0.032,0 0.051,-0.01 0.082,-0.012 0.061,-0.008 0.123,0 0.184,0.002 0.072,0.002 0.142,0 0.213,0 0.144,-0.002 0.287,-0.002 0.429,-0.002 0.079,0 0.159,0 0.237,-0.004 0.24,0 0.344,0.106 0.342,0.338 -0.002,0.139 0.009,0.283 0,0.422 -0.002,0.041 -0.014,0.074 -0.02,0.111 -0.004,0.047 -0.002,0.086 0.006,0.129 0.027,0.184 0.012,0.379 0.017,0.569 0.006,0.213 -0.066,0.345 -0.257,0.447 C 5.676,-7.203 5.188,-7.01 4.542,-6.754 4.459,-6.721 4.379,-6.687 4.299,-6.652 4.124,-6.58 3.954,-6.496 3.793,-6.391 3.708,-6.334 3.625,-6.273 3.547,-6.205 3.51,-6.172 3.481,-6.146 3.44,-6.121 3.411,-6.104 3.385,-6.074 3.37,-6.045 3.354,-6.012 3.334,-5.98 3.311,-5.951 3.288,-5.922 3.268,-5.912 3.254,-5.875 3.249,-5.854 3.233,-5.84 3.227,-5.822 3.198,-5.768 3.178,-5.713 3.151,-5.654 3.129,-5.6 3.086,-5.559 3.061,-5.508 c -0.014,0.026 -0.016,0.053 -0.025,0.076 -0.012,0.028 -0.02,0.055 -0.037,0.077 -0.01,0.015 -0.028,0.027 -0.038,0.044 -0.027,0.051 -0.035,0.124 -0.052,0.178 -0.034,0.125 -0.063,0.248 -0.084,0.375 -0.055,0.36 -0.035,0.735 0.066,1.086 0.108,0.383 0.338,0.738 0.617,1.02 0.319,0.322 0.696,0.586 1.108,0.775 0.107,0.049 0.211,0.057 0.32,0.1 0.041,0.015 0.084,0.068 0.113,0.08 0.03,0.01 0.061,0.004 0.09,0.015 0.016,0.006 0.043,0.024 0.059,0.034 0.047,0.023 0.088,0.025 0.14,0.031 0.131,0.017 0.215,0.099 0.332,0.154 0.129,0.057 0.274,0.063 0.409,0.096 0.14,0.035 0.277,0.066 0.418,0.107 0.072,0.02 0.144,0.043 0.216,0.065 0.129,0.035 0.256,0.072 0.385,0.107 0.057,0.016 0.111,0.043 0.168,0.053 0.057,0.01 0.113,0.002 0.168,0.023 0.033,0.014 0.063,0.026 0.096,0.024 0.039,-0.004 0.053,0.013 0.09,0.029 0.021,0.012 0.047,0.018 0.07,0.027 0.096,0.037 0.191,0.061 0.293,0.088 0.117,0.032 0.236,0.061 0.355,0.094 0.077,0.021 0.157,0.043 0.225,0.086 0.125,0.076 0.17,0.217 0.18,0.355 0.006,0.063 0.004,0.127 0,0.19 0,0.035 -0.004,0.072 -0.008,0.107 C 8.733,0.021 8.719,0.07 8.727,0.102 8.731,0.121 8.745,0.129 8.752,0.145 8.768,0.178 8.756,0.215 8.762,0.25 8.768,0.279 8.778,0.312 8.79,0.338 8.821,0.406 8.877,0.453 8.944,0.49 8.995,0.518 9.036,0.559 9.071,0.605 9.135,0.693 9.172,0.799 9.182,0.908 9.188,0.961 9.19,1.055 9.168,1.127"
           style="fill:#ffffff;fill-opacity:1;fill-rule:evenodd;stroke:none"
           id="path12623"
           inkscape:connector-curvature="0" />
      </g>
      <g
         style="display:inline"
         id="g12625"
         transform="matrix(1.0902375,0,0,-1.0902375,110.23163,24.3298)">
        <path
           d="m 0,0 c 0,-1.133 -0.918,-2.049 -2.049,-2.049 -1.131,0 -2.049,0.916 -2.049,2.049 0,1.131 0.918,2.049 2.049,2.049 C -0.918,2.049 0,1.131 0,0"
           style="fill:#d9b7b7;fill-opacity:1;fill-rule:nonzero;stroke:none"
           id="path12627"
           inkscape:connector-curvature="0" />
      </g>
      <g
         style="display:inline"
         id="g12629"
         transform="matrix(1.0902375,0,0,-1.0902375,109.51403,24.3298)">
        <path
           d="m 0,0 c 0,-0.77 -0.622,-1.391 -1.391,-1.391 -0.77,0 -1.389,0.621 -1.389,1.391 0,0.77 0.619,1.393 1.389,1.393 C -0.622,1.393 0,0.77 0,0"
           style="fill:#ffffff;fill-opacity:1;fill-rule:nonzero;stroke:none"
           id="path12631"
           inkscape:connector-curvature="0" />
      </g>
    </g>
  </g>
  <g
     inkscape:groupmode="layer"
     id="layer3"
     inkscape:label="suit_blades"
     style="display:inline">
    <g
       transform="matrix(0,-1,1,0,-90.347652,198.90415)"
       style="display:inline"
       id="g118672">
      <g
         style="display:inline"
         id="g12561"
         transform="matrix(1.0902375,0,0,-1.0902375,180.40291,123.7756)">
        <path
           d="m 0,0 c -6.305,0 -11.414,6.453 -11.416,14.41 0,7.959 5.111,14.412 11.416,14.412 6.303,0 11.412,-6.453 11.412,-14.412 C 11.412,6.453 6.303,0 0,0"
           style="fill:#b6b6da;fill-opacity:1;fill-rule:nonzero;stroke:none"
           id="path12563"
           inkscape:connector-curvature="0" />
      </g>
      <g
         style="display:inline"
         id="g12565"
         transform="matrix(1.0902375,0,0,-1.0902375,180.40291,122.4575)">
        <path
           d="m 0,0 c -5.777,0 -10.457,5.91 -10.457,13.201 0,7.291 4.68,13.203 10.457,13.203 5.775,0 10.455,-5.912 10.455,-13.203 C 10.455,5.91 5.775,0 0,0"
           style="fill:#000033;fill-opacity:1;fill-rule:nonzero;stroke:none"
           id="path12567"
           inkscape:connector-curvature="0" />
      </g>
      <g
         style="display:inline"
         id="g12569"
         transform="matrix(1.0902375,0,0,-1.0902375,176.81069,110.22)">
        <path
           d="m 0,0 c -0.148,-0.168 -0.338,-0.381 -0.342,-0.379 l 1.315,-1.148 c 0.533,0.611 1.146,1.295 1.8,2.009 C 2.662,0.605 2.551,0.73 2.439,0.855 2.305,0.701 2.199,0.582 2.137,0.512 1.812,0.143 1.539,-0.162 1.354,-0.381 1.166,-0.6 1.059,-0.723 1.059,-0.723 L 1.057,-0.725 C 1.016,-0.77 0.951,-0.777 0.9,-0.752 0.879,-0.756 0.859,-0.754 0.844,-0.738 L 0,0 Z"
           style="fill:#ffffff;fill-opacity:1;fill-rule:nonzero;stroke:none"
           id="path12571"
           inkscape:connector-curvature="0" />
      </g>
      <g
         style="display:inline"
         id="g12573"
         transform="matrix(1.0902375,0,0,-1.0902375,176.90859,110.1114)">
        <path
           d="m 0,0 0.758,-0.662 c 0.004,0.008 0.004,0.012 0.012,0.017 l 0.001,0.004 c 0,0 0.444,0.483 1.108,1.205 0.066,0.073 0.18,0.198 0.322,0.358 C 1.967,1.186 1.732,1.447 1.51,1.695 0.783,0.881 0.186,0.211 0.082,0.094 0.072,0.084 0.041,0.047 0,0"
           style="fill:#ffffff;fill-opacity:1;fill-rule:nonzero;stroke:none"
           id="path12575"
           inkscape:connector-curvature="0" />
      </g>
      <g
         style="display:inline"
         id="g12577"
         transform="matrix(1.0902375,0,0,-1.0902375,187.82372,102.0411)">
        <path
           d="m 0,0 c 0.006,-0.014 -0.002,-0.027 -0.014,-0.031 l -0.002,0 c 0,0 -0.039,-0.014 -0.109,-0.039 -0.074,-0.024 -0.18,-0.061 -0.311,-0.116 -0.265,-0.107 -0.64,-0.273 -1.07,-0.511 -0.428,-0.239 -0.908,-0.547 -1.396,-0.916 -0.243,-0.188 -0.491,-0.387 -0.731,-0.598 -0.244,-0.213 -0.471,-0.437 -0.695,-0.678 -0.447,-0.476 -0.885,-0.966 -1.297,-1.423 -0.131,-0.151 -0.393,-0.45 -0.693,-0.793 -0.049,0.05 -0.096,0.099 -0.145,0.15 0.301,0.338 0.561,0.629 0.695,0.773 0.422,0.45 0.868,0.932 1.329,1.399 0.228,0.236 0.472,0.467 0.718,0.674 0.246,0.211 0.5,0.404 0.748,0.588 0.498,0.363 0.993,0.666 1.43,0.896 0.434,0.23 0.814,0.393 1.086,0.496 0.133,0.049 0.242,0.086 0.312,0.108 0.077,0.023 0.114,0.037 0.114,0.037 C -0.018,0.02 -0.004,0.016 0,0 m -1.906,-0.027 c -0.041,-0.01 -0.09,-0.016 -0.129,-0.034 -0.041,-0.019 -0.057,-0.052 -0.094,-0.078 -0.039,-0.029 -0.031,-0.017 -0.08,-0.021 -0.041,-0.002 -0.086,0.006 -0.129,0.006 -0.051,0 -0.064,-0.02 -0.111,-0.041 C -2.502,-0.215 -2.512,-0.213 -2.555,-0.25 -2.592,-0.287 -2.617,-0.328 -2.666,-0.354 -2.744,-0.4 -2.83,-0.436 -2.916,-0.463 -3,-0.488 -3.043,-0.559 -3.115,-0.604 -3.199,-0.656 -3.289,-0.682 -3.373,-0.723 -3.465,-0.766 -3.541,-0.818 -3.641,-0.848 -3.742,-0.877 -3.816,-0.934 -3.893,-1.002 -3.943,-1.049 -3.992,-1.059 -4.002,-1.131 -4.008,-1.186 -3.998,-1.23 -4.072,-1.23 -4.105,-1.232 -4.143,-1.225 -4.176,-1.232 -4.217,-1.24 -4.271,-1.266 -4.311,-1.281 -4.342,-1.293 -4.352,-1.301 -4.369,-1.33 -4.383,-1.35 -4.383,-1.381 -4.402,-1.4 -4.447,-1.443 -4.514,-1.428 -4.557,-1.482 -4.604,-1.549 -4.654,-1.596 -4.721,-1.65 c -0.453,-0.389 -0.338,-0.225 -0.742,-0.663 -0.121,-0.128 -0.859,-0.951 -1.699,-1.894 -0.719,0.775 -1.393,1.525 -1.969,2.186 l -1.312,-1.149 c 0.004,0.004 0.191,-0.209 0.341,-0.377 l 0.844,0.738 c 0.016,0.014 0.035,0.016 0.055,0.014 0.053,0.025 0.115,0.016 0.158,-0.029 0,0 0.002,-0.002 0,-0.002 0,0 0.107,-0.125 0.297,-0.342 0.184,-0.219 0.459,-0.523 0.783,-0.893 0.328,-0.367 1.934,-2.216 2.34,-2.677 0.412,-0.455 0.85,-0.946 1.297,-1.422 0.224,-0.24 0.453,-0.467 0.697,-0.682 0.24,-0.209 0.486,-0.408 0.731,-0.594 0.486,-0.369 0.968,-0.677 1.396,-0.918 0.43,-0.238 0.805,-0.404 1.068,-0.509 0.135,-0.055 0.239,-0.092 0.311,-0.117 0.072,-0.026 0.111,-0.038 0.111,-0.038 0.014,-0.005 0.022,-0.019 0.016,-0.031 -0.004,-0.015 -0.018,-0.021 -0.029,-0.017 0,0 -0.041,0.013 -0.114,0.037 -0.074,0.021 -0.181,0.058 -0.316,0.111 -0.27,0.1 -0.65,0.262 -1.086,0.494 -0.436,0.231 -0.93,0.533 -1.428,0.897 -0.248,0.179 -0.502,0.377 -0.75,0.586 -0.246,0.205 -0.488,0.437 -0.716,0.673 -0.463,0.471 -0.909,0.952 -1.329,1.401 -0.418,0.451 -2.033,2.293 -2.369,2.654 -0.662,0.725 -1.107,1.207 -1.107,1.207 l -0.002,0.002 c -0.006,0.008 -0.006,0.012 -0.01,0.02 l -0.76,-0.662 c 0.043,-0.047 0.075,-0.084 0.084,-0.096 0.117,-0.133 0.239,-0.268 0.36,-0.401 0.236,-0.265 0.474,-0.533 0.711,-0.802 0.3,-0.338 0.603,-0.678 0.91,-1.016 0.322,-0.35 0.64,-0.705 0.949,-1.068 0.143,-0.17 0.309,-0.317 0.449,-0.487 0.127,-0.158 0.223,-0.332 0.416,-0.414 0.043,-0.017 0.094,-0.025 0.133,-0.047 0.065,-0.035 0.031,-0.07 0.041,-0.13 0.01,-0.075 0.047,-0.155 0.141,-0.155 0.047,-0.068 0.066,-0.15 0.113,-0.226 0.047,-0.073 0.121,-0.143 0.187,-0.2 0.069,-0.056 0.147,-0.099 0.198,-0.169 0.029,-0.041 0.051,-0.071 0.09,-0.104 0.048,-0.041 0.08,-0.062 0.115,-0.109 0.025,-0.028 0.053,-0.053 0.086,-0.076 0.105,-0.083 0.211,-0.167 0.312,-0.252 0.186,-0.159 0.375,-0.311 0.567,-0.456 0.086,-0.064 0.183,-0.123 0.261,-0.195 0.077,-0.066 0.151,-0.125 0.25,-0.152 0.1,-0.029 0.178,-0.082 0.27,-0.127 0.082,-0.039 0.174,-0.063 0.258,-0.117 0.072,-0.047 0.113,-0.116 0.197,-0.143 0.086,-0.027 0.172,-0.062 0.252,-0.107 0.049,-0.026 0.074,-0.069 0.111,-0.104 0.043,-0.039 0.053,-0.035 0.106,-0.058 0.049,-0.018 0.06,-0.038 0.111,-0.039 0.043,0 0.086,0.009 0.127,0.005 0.049,-0.002 0.043,0.012 0.082,-0.019 0.035,-0.028 0.051,-0.061 0.094,-0.078 0.037,-0.018 0.088,-0.024 0.127,-0.035 0.092,-0.026 0.189,-0.053 0.283,-0.079 0.717,-0.175 1.457,-0.22 2.193,-0.191 0.096,0.004 0.112,0.086 0.022,0.123 -1.362,0.566 -4.053,3.09 -6.51,5.645 2.457,2.556 5.148,5.08 6.508,5.646 C 0.682,0.158 0.666,0.24 0.568,0.242 -0.168,0.271 -0.91,0.227 -1.623,0.051 -1.721,0.027 -1.814,0.002 -1.906,-0.027"
           style="fill:#ffffff;fill-opacity:1;fill-rule:nonzero;stroke:none"
           id="path12579"
           inkscape:connector-curvature="0" />
      </g>
      <g
         style="display:inline"
         id="g12581"
         transform="matrix(1.0902375,0,0,-1.0902375,178.63552,113.9762)">
        <path
           d="m 0,0 c 0.012,-0.033 0.029,-0.07 0.031,-0.107 0.012,-0.215 0.002,-0.444 -0.22,-0.563 -0.075,-0.037 -0.331,-0.035 -0.278,0.104 0.028,0.076 0.119,0.07 0.182,0.091 0.078,0.028 0.156,0.09 0.201,0.159 0.049,0.074 0.039,0.162 0.041,0.248 0,0.031 0.002,0.06 0.002,0.088 0,0.015 0.004,0.035 0,0.048 -0.002,0.01 -0.008,0.016 -0.01,0.026 C -0.018,0.074 -0.008,0.035 0,0 m -4.361,-1.949 c 0.035,0.021 0.08,0.037 0.113,0.062 0.016,0.016 0.027,0.037 0.039,0.057 0.006,0.014 0.016,0.023 0.02,0.041 0.002,0.012 -0.002,0.025 0.002,0.037 0.017,0.033 0.06,0.045 0.093,0.057 0.057,0.015 0.106,0.002 0.141,0.052 0.027,0.038 0.051,0.086 0.07,0.129 0.01,0.032 0.006,0.063 0.026,0.09 0.013,0.024 0.031,0.039 0.046,0.059 0.016,0.021 0.034,0.039 0.049,0.056 0.02,0.022 0.045,0.032 0.073,0.043 0.025,0.01 0.048,0.024 0.072,0.037 0.017,0.01 0.035,0.01 0.054,0.018 0.038,0.012 0.055,0.035 0.083,0.063 0.021,0.029 0.044,0.05 0.058,0.086 0.006,0.031 -0.014,0.062 -0.006,0.087 0.016,0.036 0.074,0.082 0.1,0.114 0.023,0.027 0.049,0.056 0.076,0.084 0.016,0.019 0.033,0.05 0.055,0.064 0.023,0.014 0.051,0.016 0.076,0.026 0.023,0.011 0.033,0.033 0.043,0.052 0.025,0.049 0.053,0.104 0.08,0.151 0.021,0.037 0.051,0.066 0.064,0.105 0.036,0.094 0.127,0.094 0.198,0.154 0.033,0.03 0.062,0.057 0.088,0.09 0.017,0.028 0.029,0.043 0.044,0.073 0.006,0.017 0.018,0.029 0.026,0.046 0.006,0.014 0.01,0.03 0.021,0.041 0.016,0.026 0.028,0.055 0.049,0.08 0.063,0.077 0.338,0.395 0.416,0.454 0.049,0.043 0.133,0.054 0.151,0.128 0.007,0.026 -0.002,0.057 0.004,0.083 0.005,0.023 0.042,0.056 0.06,0.074 0.002,0.004 0.006,0.008 0.01,0.013 0.004,0.004 0.01,0.008 0.013,0.012 0.043,0.039 0.081,0.08 0.12,0.123 0.152,0.162 0.351,0.215 0.566,0.049 0.041,-0.039 0.084,-0.076 0.123,-0.117 l 0,-0.002 C -0.842,0.721 -0.65,0.502 -0.479,0.248 -0.447,0.201 -0.385,0.1 -0.432,0.047 -0.463,0.006 -0.531,0.01 -0.576,0 c -0.098,-0.014 -0.24,-0.129 -0.278,-0.213 -0.226,-0.506 0.37,-0.822 0.678,-0.683 0.242,0.105 0.381,0.462 0.371,0.691 C 0.16,0.484 -0.234,1.049 -0.668,1.533 -1.234,2.16 -1.902,2.654 -2.545,3.195 -3.057,3.625 -3.449,4.191 -3.492,4.877 -3.498,4.936 -3.5,4.99 -3.5,5.045 -3.623,5.102 -3.727,5.031 -3.803,4.918 -3.807,4.881 -3.811,4.846 -3.813,4.811 -3.857,4.348 -3.764,3.885 -3.561,3.469 -3.42,3.182 -3.252,2.936 -3.066,2.715 -3.066,2.713 -3.068,2.713 -3.068,2.711 -3.049,2.691 -3.033,2.674 -3.016,2.656 -2.99,2.629 -2.965,2.598 -2.938,2.568 -2.77,2.361 -2.748,2.17 -2.885,2 -2.924,1.957 -2.955,1.916 -2.988,1.867 -3.025,1.852 -3.063,1.854 -3.094,1.824 -3.133,1.791 -3.164,1.777 -3.174,1.725 -3.189,1.666 -3.195,1.604 -3.225,1.549 -3.254,1.488 -3.316,1.445 -3.365,1.398 -3.385,1.381 -3.605,1.121 -3.627,1.107 -3.656,1.088 -3.684,1.07 -3.709,1.053 -3.795,0.996 -3.859,0.936 -3.91,0.844 -3.936,0.801 -3.963,0.752 -3.998,0.715 -4.035,0.676 -4.074,0.67 -4.123,0.65 -4.195,0.617 -4.26,0.551 -4.275,0.471 -4.287,0.404 -4.264,0.318 -4.32,0.268 -4.367,0.229 -4.447,0.227 -4.504,0.201 -4.58,0.164 -4.596,0.094 -4.621,0.02 c -0.02,-0.065 -0.049,-0.098 -0.09,-0.149 -0.027,-0.027 -0.053,-0.066 -0.084,-0.092 -0.029,-0.023 -0.068,-0.043 -0.101,-0.06 -0.04,-0.022 -0.065,-0.045 -0.098,-0.08 -0.027,-0.032 -0.102,-0.084 -0.092,-0.133 0.004,-0.027 0.02,-0.033 0.004,-0.067 -0.012,-0.021 -0.035,-0.041 -0.053,-0.062 -0.011,-0.014 -0.027,-0.039 -0.045,-0.047 -0.011,-0.006 -0.027,-0.002 -0.039,-0.006 -0.023,-0.008 -0.045,-0.017 -0.062,-0.029 -0.035,-0.016 -0.088,-0.041 -0.108,-0.072 -0.015,-0.026 -0.007,-0.053 -0.004,-0.078 0.006,-0.038 0.006,-0.071 0,-0.108 -0.007,-0.039 -0.011,-0.066 -0.039,-0.098 -0.019,-0.017 -0.05,-0.044 -0.06,-0.068 -0.014,-0.027 0,-0.07 0.002,-0.1 0.002,-0.033 0.008,-0.07 0.021,-0.105 0.024,-0.066 0.067,-0.129 0.119,-0.176 l 0.448,-0.39 c 0.047,-0.041 0.103,-0.079 0.162,-0.102 0.086,-0.031 0.181,-0.031 0.267,-0.004 0.039,0.014 0.077,0.033 0.112,0.057"
           style="fill:#ffffff;fill-opacity:1;fill-rule:nonzero;stroke:none"
           id="path12583"
           inkscape:connector-curvature="0" />
      </g>
      <g
         style="display:inline"
         id="g12585"
         transform="matrix(1.0902375,0,0,-1.0902375,178.59082,102.2264)">
        <path
           d="M 0,0 C 0.002,0.014 0,0.031 0,0.047 -0.002,0.076 -0.002,0.105 -0.004,0.135 -0.006,0.221 0.002,0.309 -0.043,0.383 -0.09,0.455 -0.17,0.514 -0.246,0.543 -0.309,0.564 -0.398,0.559 -0.428,0.635 -0.48,0.773 -0.225,0.775 -0.148,0.736 0.072,0.619 0.082,0.391 0.072,0.174 0.068,0.139 0.051,0.1 0.041,0.068 0.031,0.033 0.021,-0.008 -0.012,-0.027 -0.01,-0.016 -0.002,-0.012 0,0 m -3.451,-4.809 c 0.043,0.684 0.435,1.248 0.947,1.68 0.643,0.541 1.311,1.033 1.875,1.662 0.436,0.485 0.828,1.049 0.863,1.737 0.012,0.234 -0.129,0.589 -0.369,0.695 -0.31,0.137 -0.904,-0.178 -0.679,-0.686 0.039,-0.086 0.179,-0.197 0.277,-0.215 0.047,-0.007 0.113,-0.002 0.146,-0.043 0.045,-0.052 -0.017,-0.154 -0.048,-0.203 -0.17,-0.252 -0.362,-0.472 -0.565,-0.673 l -0.002,0 c -0.037,-0.043 -0.082,-0.079 -0.121,-0.118 -0.217,-0.164 -0.414,-0.117 -0.568,0.049 -0.039,0.041 -0.075,0.08 -0.117,0.123 -0.006,0.002 -0.01,0.006 -0.014,0.012 -0.006,0.006 -0.008,0.008 -0.012,0.014 -0.016,0.017 -0.055,0.05 -0.06,0.074 -0.006,0.023 0.003,0.055 -0.004,0.08 -0.016,0.074 -0.1,0.088 -0.151,0.129 -0.078,0.06 -0.351,0.377 -0.416,0.455 -0.019,0.023 -0.033,0.053 -0.051,0.078 -0.009,0.016 -0.013,0.027 -0.019,0.043 -0.008,0.016 -0.02,0.029 -0.025,0.047 -0.016,0.029 -0.026,0.043 -0.043,0.07 -0.026,0.035 -0.057,0.063 -0.092,0.092 -0.067,0.061 -0.16,0.061 -0.194,0.154 -0.015,0.039 -0.041,0.067 -0.064,0.104 -0.029,0.049 -0.055,0.101 -0.08,0.152 -0.012,0.02 -0.022,0.041 -0.045,0.051 -0.023,0.012 -0.053,0.014 -0.076,0.027 -0.022,0.014 -0.039,0.043 -0.055,0.065 -0.025,0.027 -0.051,0.056 -0.074,0.084 -0.026,0.029 -0.086,0.076 -0.1,0.113 -0.008,0.023 0.01,0.057 0.002,0.088 -0.01,0.033 -0.035,0.056 -0.056,0.084 -0.026,0.027 -0.045,0.053 -0.08,0.064 -0.02,0.008 -0.04,0.008 -0.057,0.018 -0.024,0.014 -0.045,0.025 -0.07,0.035 -0.03,0.012 -0.053,0.022 -0.073,0.045 -0.017,0.018 -0.033,0.035 -0.05,0.055 C -3.787,1.451 -3.803,1.469 -3.818,1.49 -3.836,1.52 -3.834,1.549 -3.846,1.582 -3.861,1.623 -3.887,1.672 -3.912,1.709 -3.947,1.764 -3.998,1.746 -4.055,1.764 -4.086,1.773 -4.129,1.785 -4.146,1.82 -4.15,1.832 -4.148,1.844 -4.148,1.857 -4.152,1.875 -4.162,1.885 -4.168,1.898 -4.182,1.916 -4.191,1.939 -4.209,1.953 -4.24,1.979 -4.287,1.994 -4.32,2.018 -4.355,2.041 -4.395,2.063 -4.434,2.074 -4.521,2.102 -4.615,2.102 -4.701,2.068 -4.76,2.047 -4.816,2.01 -4.863,1.967 L -5.309,1.578 C -5.363,1.529 -5.406,1.469 -5.432,1.398 -5.443,1.365 -5.447,1.332 -5.451,1.295 c -0.002,-0.029 -0.016,-0.07 -0.002,-0.1 0.012,-0.023 0.043,-0.049 0.06,-0.07 0.028,-0.027 0.032,-0.055 0.039,-0.094 0.006,-0.037 0.006,-0.072 0,-0.107 -0.001,-0.028 -0.009,-0.055 0.006,-0.078 0.02,-0.032 0.071,-0.057 0.106,-0.075 0.017,-0.011 0.039,-0.023 0.062,-0.027 0.012,-0.002 0.028,0 0.041,-0.008 0.016,-0.007 0.03,-0.031 0.043,-0.047 0.02,-0.021 0.041,-0.039 0.051,-0.062 0.02,-0.033 0.004,-0.039 -0.004,-0.066 -0.006,-0.047 0.069,-0.102 0.096,-0.131 0.031,-0.035 0.057,-0.059 0.096,-0.08 0.033,-0.018 0.074,-0.038 0.103,-0.061 0.029,-0.025 0.055,-0.064 0.082,-0.096 0.043,-0.048 0.072,-0.082 0.09,-0.144 0.018,-0.063 0.031,-0.129 0.09,-0.166 0.045,-0.029 0.099,-0.029 0.146,-0.061 0.037,-0.025 0.067,-0.064 0.098,-0.099 0.016,-0.02 0.029,-0.039 0.033,-0.063 0.008,-0.029 -0.012,-0.062 0,-0.086 0.01,-0.025 0.045,-0.049 0.061,-0.068 0.017,-0.02 0.035,-0.043 0.054,-0.063 0.014,-0.015 0.032,-0.027 0.051,-0.037 0.024,-0.011 0.049,-0.015 0.069,-0.029 0.013,-0.01 0.023,-0.027 0.035,-0.041 0.031,-0.037 0.05,-0.07 0.074,-0.115 0.049,-0.09 0.117,-0.151 0.201,-0.205 0.027,-0.02 0.055,-0.037 0.084,-0.057 0.022,-0.014 0.24,-0.273 0.26,-0.291 0.051,-0.045 0.111,-0.088 0.142,-0.15 0.03,-0.055 0.034,-0.116 0.049,-0.176 0.012,-0.051 0.043,-0.065 0.082,-0.1 0.03,-0.029 0.069,-0.027 0.106,-0.045 0.031,-0.047 0.064,-0.086 0.101,-0.129 0.137,-0.172 0.117,-0.363 -0.052,-0.57 L -2.975,-2.59 c -0.017,-0.019 -0.035,-0.035 -0.052,-0.053 0,-0.003 0,-0.003 0.002,-0.005 -0.186,-0.219 -0.356,-0.463 -0.495,-0.752 -0.203,-0.416 -0.296,-0.879 -0.251,-1.342 10e-4,-0.037 0.005,-0.074 0.009,-0.108 0.076,-0.115 0.18,-0.183 0.303,-0.127 0,0.053 0.002,0.11 0.008,0.168"
           style="fill:#ffffff;fill-opacity:1;fill-rule:nonzero;stroke:none"
           id="path12587"
           inkscape:connector-curvature="0" />
      </g>
      <g
         style="display:inline"
         id="g12633"
         transform="matrix(1.0902375,0,0,-1.0902375,194.41846,104.9605)">
        <path
           d="m 0,0 c 0,-1.133 -0.914,-2.049 -2.049,-2.049 -1.133,0 -2.049,0.916 -2.049,2.049 0,1.135 0.916,2.051 2.049,2.051 C -0.914,2.051 0,1.135 0,0"
           style="fill:#b7b7d9;fill-opacity:1;fill-rule:nonzero;stroke:none"
           id="path12635"
           inkscape:connector-curvature="0" />
      </g>
      <g
         style="display:inline"
         id="g12637"
         transform="matrix(1.0902375,0,0,-1.0902375,193.70294,104.9605)">
        <path
           d="m 0,0 c 0,-0.768 -0.623,-1.391 -1.393,-1.391 -0.765,0 -1.39,0.623 -1.39,1.391 0,0.77 0.625,1.393 1.39,1.393 C -0.623,1.393 0,0.77 0,0"
           style="fill:#ffffff;fill-opacity:1;fill-rule:nonzero;stroke:none"
           id="path12639"
           inkscape:connector-curvature="0" />
      </g>
      <g
         style="display:inline"
         id="g12641"
         transform="matrix(1.0902375,0,0,-1.0902375,194.41846,111.1697)">
        <path
           d="m 0,0 c 0,-1.133 -0.914,-2.049 -2.049,-2.049 -1.133,0 -2.049,0.916 -2.049,2.049 0,1.135 0.916,2.051 2.049,2.051 C -0.914,2.051 0,1.135 0,0"
           style="fill:#b7b7d9;fill-opacity:1;fill-rule:nonzero;stroke:none"
           id="path12643"
           inkscape:connector-curvature="0" />
      </g>
      <g
         style="display:inline"
         id="g12645"
         transform="matrix(1.0902375,0,0,-1.0902375,193.70294,111.1697)">
        <path
           d="m 0,0 c 0,-0.768 -0.623,-1.391 -1.393,-1.391 -0.765,0 -1.39,0.623 -1.39,1.391 0,0.77 0.625,1.393 1.39,1.393 C -0.623,1.393 0,0.77 0,0"
           style="fill:#ffffff;fill-opacity:1;fill-rule:nonzero;stroke:none"
           id="path12647"
           inkscape:connector-curvature="0" />
      </g>
    </g>
  </g>
  <g
     inkscape:groupmode="layer"
     id="layer4"
     inkscape:label="suit_crown"
     style="display:inline">
    <g
       transform="matrix(-1,0,0,-1,125.78252,198.89204)"
       style="display:inline"
       id="g118732">
      <g
         style="display:inline"
         id="g12553"
         transform="matrix(1.0902375,0,0,-1.0902375,92.355113,180.39984)">
        <path
           d="M 0,0 C 0,6.305 6.452,11.413 14.41,11.413 22.368,11.413 28.821,6.305 28.821,0 28.821,-6.305 22.368,-11.413 14.41,-11.413 6.452,-11.413 0,-6.305 0,0"
           style="fill:#d9d9b7;fill-opacity:1;fill-rule:nonzero;stroke:none"
           id="path12555"
           inkscape:connector-curvature="0" />
      </g>
      <g
         style="display:inline"
         id="g12557"
         transform="matrix(1.0902375,0,0,-1.0902375,93.672123,180.39984)">
        <path
           d="m 0,0 c 0,5.775 5.912,10.456 13.202,10.456 7.292,0 13.204,-4.681 13.204,-10.456 0,-5.775 -5.912,-10.456 -13.204,-10.456 C 5.912,-10.456 0,-5.775 0,0"
           style="fill:#333300;fill-opacity:1;fill-rule:nonzero;stroke:none"
           id="path12559"
           inkscape:connector-curvature="0" />
      </g>
      <g
         style="display:inline"
         id="g12589"
         transform="matrix(1.0902375,0,0,-1.0902375,102.59942,175.38094)">
        <path
           d="m 0,0 c 0.226,-0.186 0.487,-0.269 0.746,-0.357 0.37,-0.128 0.742,-0.247 1.119,-0.332 0.094,-0.021 0.188,-0.04 0.281,-0.057 0.673,-0.122 1.35,-0.192 2.029,-0.229 0.73,-0.04 1.464,-0.031 2.195,0.038 0.302,0.03 0.605,0.06 0.91,0.105 0.535,0.073 1.072,0.175 1.599,0.328 0.42,0.121 0.969,0.232 1.282,0.64 0.045,0.057 0.074,0.159 0.086,0.248 C 10.327,0.979 9.405,1.103 9.112,1.155 8.721,1.223 8.327,1.259 7.932,1.282 7.758,1.294 7.583,1.312 7.407,1.312 7.254,1.318 7.1,1.323 6.948,1.329 6.508,1.342 6.069,1.348 5.627,1.35 4.426,1.342 2.953,1.304 2.17,1.202 1.926,1.17 1.631,1.125 1.44,0.97 1.259,0.821 1.328,0.578 1.527,0.475 1.713,0.376 1.916,0.313 2.121,0.259 2.318,0.209 2.515,0.16 2.713,0.12 3.42,-0.029 4.142,-0.083 4.86,-0.111 c 0.584,-0.024 1.17,-0.019 1.752,0.023 0.244,0.018 0.486,0.037 0.726,0.063 0.43,0.043 0.86,0.103 1.28,0.197 C 8.702,0.188 8.792,0.209 8.883,0.228 9.118,0.28 9.139,0.164 8.899,0.088 8.729,0.036 8.559,0 8.405,-0.04 7.942,-0.156 7.469,-0.235 6.997,-0.294 6.733,-0.325 6.467,-0.35 6.198,-0.371 5.677,-0.416 5.152,-0.428 4.629,-0.415 3.496,-0.391 2.354,-0.261 1.255,0.072 1.029,0.141 0.797,0.205 0.599,0.347 0.418,0.476 0.312,0.717 0.51,0.904 0.521,0.916 0.546,0.933 0.556,0.945 0.561,0.958 0.56,0.991 0.557,1.005 0.546,1.034 0.476,1.046 0.453,1.049 0.408,1.05 0.358,1.022 0.317,1.005 0.221,0.967 0.126,0.917 0.039,0.854 -0.012,0.817 -0.059,0.775 -0.103,0.728 -0.33,0.48 -0.207,0.168 0,0"
           style="fill:#ffffff;fill-opacity:1;fill-rule:nonzero;stroke:none"
           id="path12591"
           inkscape:connector-curvature="0" />
      </g>
      <g
         style="display:inline"
         id="g12593"
         transform="matrix(1.0902375,0,0,-1.0902375,107.05195,179.55874)">
        <path
           d="m 0,0 c 0.062,0.053 0.121,0.108 0.179,0.165 0.2,0.197 0.349,0.426 0.48,0.672 0.037,0.068 0.069,0.136 0.092,0.208 0.021,0.06 0.034,0.138 0.078,0.185 0.023,0.027 0.052,0.041 0.083,0.041 0.02,0 0.039,-0.005 0.059,-0.017 C 1.028,1.217 1.032,1.154 1.055,1.097 1.146,0.843 1.278,0.614 1.439,0.398 1.518,0.3 1.605,0.208 1.694,0.115 1.741,0.064 1.803,0.032 1.851,-0.019 1.872,-0.041 1.894,-0.072 1.896,-0.104 1.901,-0.128 1.894,-0.18 1.881,-0.201 1.854,-0.252 1.77,-0.271 1.726,-0.303 1.666,-0.345 1.612,-0.392 1.564,-0.446 1.253,-0.802 1.241,-0.901 1.199,-1.348 1.192,-1.427 1.175,-1.471 1.09,-1.465 1.034,-1.464 0.979,-1.462 0.923,-1.462 l -0.01,0 -0.012,0 C 0.846,-1.462 0.79,-1.464 0.733,-1.465 0.649,-1.471 0.634,-1.427 0.627,-1.348 0.61,-1.194 0.596,-1.173 0.576,-1.018 0.533,-0.667 0.429,-0.582 0.148,-0.345 0.07,-0.278 -0.076,-0.237 -0.071,-0.112 -0.068,-0.06 -0.039,-0.033 0,0 m -6.692,0.252 c 0.005,-0.023 0.021,-0.044 0.03,-0.06 0.024,-0.05 0.05,-0.099 0.072,-0.148 0.198,-0.41 0.424,-1.04 0.469,-2.048 0.003,-0.049 0.009,-0.098 0.012,-0.146 0.002,-0.037 -0.006,-0.083 0.02,-0.112 0.008,-0.009 0.027,-0.024 0.038,-0.03 0.02,-0.007 0.043,-0.005 0.061,-0.003 0.027,0.004 0.039,0.018 0.055,0.039 0.047,0.051 0.096,0.099 0.146,0.147 0.292,0.273 0.794,0.607 1.56,0.682 0.042,0.004 0.086,0.008 0.127,0.01 0.051,0.005 0.117,-0.006 0.147,0.053 0.029,0.058 -0.048,0.112 -0.082,0.145 -0.031,0.032 -0.06,0.063 -0.089,0.094 -0.098,0.109 -0.187,0.237 -0.226,0.368 -0.232,0.805 0.071,1.569 0.996,1.662 0.341,0.034 0.713,-0.147 0.751,-0.513 0.019,-0.199 -0.145,-0.417 -0.173,-0.615 -0.051,-0.367 0.282,-0.25 0.467,-0.099 0.332,0.265 0.84,0.218 1.223,0.044 0.374,-0.17 0.495,-0.223 0.617,-0.589 0.132,-0.401 0.081,-0.618 -0.263,-0.618 l -0.05,0 c -0.129,0 -0.163,0 -0.334,0.006 l -0.008,0 -0.022,0 c -0.139,0.004 -0.193,-0.039 -0.192,-0.214 0.002,-0.198 0.002,-0.213 0.002,-0.375 0,-0.199 0.147,-0.202 0.272,-0.202 0.136,0 0.276,-10e-4 0.417,-10e-4 -0.2,-0.53 -0.68,-0.898 -1.178,-0.927 -0.155,-0.009 -0.432,0.018 -0.564,0.1 -0.285,0.179 -0.456,0.537 -0.387,0.87 0.009,0.045 0.03,0.085 0.048,0.126 0.017,0.041 0.034,0.1 0.011,0.136 -0.007,0.014 -0.023,0.024 -0.049,0.025 -0.089,0.006 -0.193,-0.055 -0.266,-0.103 -0.141,-0.088 -0.276,-0.216 -0.37,-0.354 -0.186,-0.283 -0.255,-0.65 -0.187,-0.98 0.038,-0.192 0.122,-0.376 0.241,-0.531 0.481,-0.612 1.616,-0.697 2.382,-0.099 0.542,0.428 0.814,0.907 0.96,1.539 0.016,0.066 0.023,0.131 0.033,0.196 l 0.335,0 C 0.299,-2.965 0.193,-3.809 -0.251,-4.27 -0.32,-4.343 -0.4,-4.407 -0.483,-4.464 -0.561,-4.518 -0.642,-4.565 -0.727,-4.604 -0.779,-4.63 -0.851,-4.65 -0.885,-4.702 c -0.094,-0.144 0.122,-0.265 0.213,-0.327 1.3,-0.907 1.438,-1.791 1.483,-1.929 0.016,-0.049 0.055,-0.157 0.111,-0.162 0.018,-0.003 0.037,0.007 0.057,0.03 0.065,0.069 0.051,0.155 0.077,0.238 0.033,0.117 0.062,0.242 0.125,0.346 0.427,0.719 0.694,1.017 1.165,1.337 0.106,0.069 0.205,0.15 0.299,0.237 0.049,0.044 0.141,0.12 0.119,0.195 -0.017,0.072 -0.123,0.107 -0.181,0.134 -0.094,0.042 -0.188,0.087 -0.272,0.149 -0.154,0.116 -0.293,0.276 -0.401,0.436 -0.107,0.163 -0.181,0.348 -0.244,0.531 -0.063,0.184 -0.098,0.375 -0.129,0.568 -0.004,0.021 -0.01,0.042 -0.011,0.066 -0.018,0.132 -0.036,0.359 -0.051,0.58 l 0.36,0 c 0.011,-0.065 0.018,-0.13 0.033,-0.196 0.146,-0.632 0.416,-1.111 0.961,-1.539 0.765,-0.598 1.902,-0.513 2.38,0.099 0.12,0.155 0.204,0.339 0.241,0.531 0.068,0.33 0,0.697 -0.186,0.98 -0.092,0.14 -0.228,0.266 -0.371,0.354 C 4.821,-1.996 4.717,-1.935 4.627,-1.941 4.604,-1.942 4.586,-1.952 4.579,-1.966 4.557,-2.002 4.575,-2.061 4.59,-2.102 4.61,-2.143 4.627,-2.183 4.637,-2.228 4.708,-2.561 4.536,-2.919 4.25,-3.098 4.12,-3.18 3.844,-3.207 3.686,-3.198 3.19,-3.169 2.709,-2.801 2.51,-2.271 c 0.145,0 0.289,10e-4 0.43,10e-4 0.125,0 0.271,0.006 0.269,0.202 0.002,0.164 0.002,-0.122 0.002,0.075 0.002,0.177 -0.05,0.518 -0.189,0.514 l -0.023,0 -0.006,0 C 2.821,-1.485 2.786,-1.485 2.657,-1.485 l -0.049,0 c -0.346,0 -0.397,0.217 -0.264,0.618 0.03,0.094 0.061,0.167 0.088,0.229 0.102,0.172 0.24,0.233 0.516,0.36 0.385,0.174 0.89,0.221 1.222,-0.044 C 4.358,-0.473 4.688,-0.59 4.637,-0.223 4.61,-0.025 4.448,0.193 4.465,0.392 4.489,0.622 4.645,0.776 4.842,0.854 4.84,0.856 4.838,0.856 4.836,0.858 4.958,0.901 5.088,0.916 5.215,0.905 6.143,0.812 6.446,0.048 6.213,-0.757 6.176,-0.888 6.084,-1.016 5.985,-1.125 5.958,-1.156 5.928,-1.187 5.897,-1.219 5.864,-1.252 5.786,-1.306 5.815,-1.364 c 0.031,-0.059 0.098,-0.048 0.146,-0.053 0.043,-0.002 0.086,-0.006 0.129,-0.01 0.766,-0.075 1.268,-0.409 1.559,-0.682 0.051,-0.048 0.1,-0.096 0.144,-0.147 0.018,-0.021 0.03,-0.035 0.057,-0.039 0.02,-0.002 0.043,-0.004 0.063,0.003 0.009,0.006 0.029,0.021 0.037,0.03 0.025,0.029 0.017,0.075 0.021,0.112 0.002,0.048 0.008,0.097 0.012,0.146 0.043,1.008 0.269,1.638 0.467,2.048 0.023,0.049 0.049,0.098 0.074,0.148 0.008,0.016 0.023,0.037 0.029,0.06 C 8.559,0.27 8.555,0.3 8.555,0.319 8.547,0.44 8.379,0.434 8.307,0.421 8.092,0.375 7.514,0.277 7.067,0.772 6.727,1.189 6.313,1.748 6.088,2.298 6.036,2.429 6.065,2.554 6.159,2.61 6.204,2.638 6.254,2.653 6.297,2.681 6.415,2.751 6.405,2.896 6.381,3.018 6.37,3.086 6.309,3.185 6.262,3.192 6.157,3.208 6.049,3.188 5.948,3.156 5.844,3.126 5.739,3.095 5.633,3.064 5.438,2.985 5.247,2.934 5.079,2.887 L 4.934,2.847 C 4.434,2.701 3.903,2.593 3.264,2.501 2.983,2.463 2.686,2.429 2.333,2.396 1.618,2.327 0.854,2.313 0.063,2.356 c -0.76,0.041 -1.445,0.119 -2.091,0.237 -0.1,0.019 -0.199,0.038 -0.3,0.06 -0.299,0.07 -0.613,0.16 -0.99,0.286 C -3.574,3.006 -3.832,3.08 -4.087,3.156 -4.189,3.188 -4.298,3.208 -4.399,3.192 -4.447,3.185 -4.508,3.086 -4.521,3.018 -4.543,2.897 -4.555,2.751 -4.436,2.681 -4.393,2.656 -4.344,2.638 -4.298,2.61 -4.205,2.554 -4.173,2.429 -4.229,2.296 -4.454,1.748 -4.866,1.189 -5.205,0.772 -5.652,0.277 -6.231,0.375 -6.446,0.421 -6.519,0.434 -6.687,0.44 -6.693,0.319 -6.694,0.3 -6.697,0.27 -6.692,0.252"
           style="fill:#ffffff;fill-opacity:1;fill-rule:nonzero;stroke:none"
           id="path12595"
           inkscape:connector-curvature="0" />
      </g>
      <g
         style="display:inline"
         id="g23409"
         transform="matrix(1.0902375,0,0,-1.0902375,108.06445,194.39404)">
        <path
           d="m 0,0 c -1.133,0 -2.049,0.914 -2.049,2.049 0,1.133 0.916,2.049 2.049,2.049 1.134,0 2.05,-0.916 2.05,-2.049 C 2.05,0.915 1.134,0 0,0"
           style="fill:#d9d9b7;fill-opacity:1;fill-rule:nonzero;stroke:none"
           id="path23411"
           inkscape:connector-curvature="0" />
      </g>
      <g
         style="display:inline"
         id="g23413"
         transform="matrix(1.0902375,0,0,-1.0902375,108.06445,193.67754)">
        <path
           d="m 0,0 c -0.768,0 -1.391,0.623 -1.391,1.392 0,0.766 0.623,1.39 1.391,1.39 0.77,0 1.392,-0.624 1.392,-1.39 C 1.392,0.623 0.77,0 0,0"
           style="fill:#ffffff;fill-opacity:1;fill-rule:nonzero;stroke:none"
           id="path23415"
           inkscape:connector-curvature="0" />
      </g>
      <g
         style="display:inline"
         id="g23417"
         transform="matrix(1.0902375,0,0,-1.0902375,101.79558,193.49764)">
        <path
           d="m 0,0 c -1.133,0 -2.049,0.914 -2.049,2.049 0,1.133 0.916,2.049 2.049,2.049 1.135,0 2.051,-0.916 2.051,-2.049 C 2.051,0.915 1.135,0 0,0"
           style="fill:#d9d9b7;fill-opacity:1;fill-rule:nonzero;stroke:none"
           id="path23419"
           inkscape:connector-curvature="0" />
      </g>
      <g
         style="display:inline"
         id="g23421"
         transform="matrix(1.0902375,0,0,-1.0902375,101.79558,192.78104)">
        <path
           d="m 0,0 c -0.768,0 -1.391,0.623 -1.391,1.392 0,0.766 0.623,1.39 1.391,1.39 0.77,0 1.393,-0.624 1.393,-1.39 C 1.393,0.623 0.77,0 0,0"
           style="fill:#ffffff;fill-opacity:1;fill-rule:nonzero;stroke:none"
           id="path23423"
           inkscape:connector-curvature="0" />
      </g>
      <g
         style="display:inline"
         id="g23425"
         transform="matrix(1.0902375,0,0,-1.0902375,114.33495,193.49764)">
        <path
           d="m 0,0 c -1.133,0 -2.049,0.914 -2.049,2.049 0,1.133 0.916,2.049 2.049,2.049 1.135,0 2.051,-0.916 2.051,-2.049 C 2.051,0.915 1.135,0 0,0"
           style="fill:#d9d9b7;fill-opacity:1;fill-rule:nonzero;stroke:none"
           id="path23427"
           inkscape:connector-curvature="0" />
      </g>
      <g
         style="display:inline"
         id="g23429"
         transform="matrix(1.0902375,0,0,-1.0902375,114.33495,192.78104)">
        <path
           d="m 0,0 c -0.768,0 -1.391,0.623 -1.391,1.392 0,0.766 0.623,1.39 1.391,1.39 0.77,0 1.393,-0.624 1.393,-1.39 C 1.393,0.623 0.77,0 0,0"
           style="fill:#ffffff;fill-opacity:1;fill-rule:nonzero;stroke:none"
           id="path23431"
           inkscape:connector-curvature="0" />
      </g>
    </g>
  </g>
  <g
     inkscape:groupmode="layer"
     id="layer5"
     inkscape:label="suit_dragon">
    <g
       transform="matrix(0,1,-1,0,125.78091,-17.316729)"
       style="display:inline"
       id="g118696">
      <g
         style="display:inline"
         id="g23433"
         transform="matrix(1.0902375,0,0,-1.0902375,35.729813,92.3546)">
        <path
           d="m 0,0 c 6.304,0.001 11.412,-6.451 11.413,-14.41 0,-7.956 -5.109,-14.409 -11.413,-14.409 -6.304,0 -11.411,6.452 -11.411,14.41 C -11.412,-6.451 -6.304,0 0,0"
           style="fill:#b7d9b7;fill-opacity:1;fill-rule:nonzero;stroke:none"
           id="path23435"
           inkscape:connector-curvature="0" />
      </g>
      <g
         style="display:inline"
         id="g23437"
         transform="matrix(1.0902375,0,0,-1.0902375,35.729813,93.6705)">
        <path
           d="m 0,0 c 5.775,0 10.456,-5.911 10.457,-13.202 -0.002,-7.291 -4.682,-13.201 -10.456,-13.202 -5.778,0.001 -10.458,5.911 -10.458,13.201 C -10.456,-5.911 -5.776,0 0,0"
           style="fill:#003300;fill-opacity:1;fill-rule:nonzero;stroke:none"
           id="path23439"
           inkscape:connector-curvature="0" />
      </g>
      <g
         style="display:inline"
         id="g23441"
         transform="matrix(1.0902375,0,0,-1.0902375,38.779103,101.3267)">
        <path
           d="M 0,0 C 0.276,0.003 0.562,-0.137 0.702,-0.318 0.574,0.16 0.244,0.633 -0.055,0.766 0.068,0.561 0.147,0.225 0,0"
           style="fill:#ffffff;fill-opacity:1;fill-rule:nonzero;stroke:none"
           id="path23443"
           inkscape:connector-curvature="0" />
      </g>
      <g
         style="display:inline"
         id="g23445"
         transform="matrix(1.0902375,0,0,-1.0902375,37.611133,100.0842)">
        <path
           d="m 0,0 c 0.001,-0.432 -0.081,-0.943 -0.341,-1.59 -0.416,-1.036 -0.551,-2.168 -0.429,-3.144 0.053,-0.429 0.155,-0.829 0.302,-1.179 0.156,0.459 0.01,1.737 0.021,2.059 0.021,0.724 0.114,1.243 0.311,1.789 0.164,0.459 0.506,0.733 0.652,0.846 0.143,0.536 0.096,1.106 -0.081,1.493 C 0.332,0.502 0.106,0.761 -0.265,0.879 -0.077,0.636 -0.001,0.284 0,0"
           style="fill:#ffffff;fill-opacity:1;fill-rule:nonzero;stroke:none"
           id="path23447"
           inkscape:connector-curvature="0" />
      </g>
      <g
         style="display:inline"
         id="g23449"
         transform="matrix(1.0902375,0,0,-1.0902375,31.10056,101.0115)">
        <path
           d="m 0,0 c -0.275,-0.589 -0.316,-1.413 -0.35,-2.014 l -0.006,-0.132 c -0.027,-0.439 -0.135,-1.231 -0.604,-1.643 -0.006,-0.006 -0.02,-0.018 -0.047,-0.044 -0.037,-0.033 -0.086,-0.075 -0.143,-0.106 -0.031,-0.022 -0.063,-0.046 -0.102,-0.059 -0.04,-0.018 -0.081,-0.041 -0.125,-0.055 -0.047,-0.012 -0.092,-0.025 -0.143,-0.041 -0.032,-0.013 -0.099,-0.01 -0.149,-0.015 -0.054,-0.004 -0.109,-0.014 -0.156,-0.003 -0.051,0.003 -0.1,0.008 -0.149,0.014 -0.047,0.002 -0.093,0.02 -0.139,0.029 -0.042,0.012 -0.086,0.024 -0.124,0.033 -0.04,0.008 -0.071,0.028 -0.103,0.042 -0.028,0.014 -0.054,0.025 -0.076,0.034 -0.042,0.021 -0.067,0.032 -0.067,0.032 0,0 0.022,-0.015 0.063,-0.042 0.02,-0.012 0.041,-0.027 0.071,-0.046 0.029,-0.013 0.057,-0.041 0.096,-0.056 0.038,-0.015 0.078,-0.035 0.123,-0.052 0.04,-0.017 0.09,-0.043 0.141,-0.051 0.052,-0.015 0.104,-0.024 0.158,-0.04 0.054,-0.016 0.109,-0.015 0.163,-0.022 0.057,0 0.101,-0.011 0.172,-0.003 0.056,0.006 0.107,0.015 0.162,0.018 0.055,0.012 0.103,0.03 0.153,0.044 0.046,0.012 0.094,0.033 0.135,0.053 0.088,0.039 0.147,0.076 0.184,0.102 0.039,0.026 0.062,0.041 0.062,0.041 l -0.076,0.098 0.082,-0.091 c 0.509,0.445 0.654,1.233 0.687,1.815 l 0.007,0.133 c 0.032,0.579 0.074,1.377 0.326,1.922 0.215,0.46 0.725,1.23 1.739,1.207 C 2,1.099 2.117,1.088 2.241,1.062 2.416,0.928 2.436,0.707 2.472,0.503 2.493,0.381 2.524,0.261 2.546,0.139 2.576,-0.021 2.611,-0.184 2.646,-0.346 2.977,-1.957 2.52,-2.52 2.497,-2.674 2.482,-2.777 2.443,-2.869 2.386,-2.945 2.375,-2.956 2.366,-2.967 2.355,-2.975 2.322,-3.008 2.28,-3 2.232,-3 2.174,-3.002 2.139,-2.995 2.088,-2.972 2.066,-2.962 2.045,-2.932 2.034,-2.912 2.02,-2.882 1.998,-2.83 1.992,-2.796 1.983,-2.754 1.967,-2.736 1.94,-2.706 1.904,-2.664 1.895,-2.658 1.846,-2.641 1.759,-2.614 1.65,-2.611 1.559,-2.639 1.396,-2.68 1.359,-2.813 1.303,-2.945 1.152,-3.285 1.031,-3.913 0.933,-4.273 0.776,-4.834 0.497,-5.371 0.056,-5.844 c -0.541,-0.58 -1.644,-0.383 -1.942,0.145 0.155,-1.016 0.944,-1.451 1.453,-1.487 0.448,-0.027 0.858,0.143 1.178,0.417 -0.105,-0.332 -0.264,-0.749 -0.77,-0.855 -0.251,-0.051 -0.63,0.021 -0.838,0.145 0.368,-0.351 0.952,-0.732 1.191,-0.942 0.008,-0.87 -0.121,-1.281 -0.195,-1.604 -1.647,-0.24 -2.176,-0.765 -2.348,-0.939 -0.08,-0.08 -0.23,-0.231 -0.23,-0.382 0,-0.025 0.004,-0.049 0.013,-0.072 0.008,-0.016 0.018,-0.031 0.036,-0.037 0.015,-0.006 0.033,-0.006 0.048,0.002 0.174,0.076 0.315,0.146 0.444,0.213 0.318,0.157 0.549,0.273 1,0.369 0.574,0.127 0.799,0.076 0.842,0.031 0.015,-0.015 0.028,-0.048 0.023,-0.092 -0.055,-0.461 -0.453,-1.376 -0.984,-2.078 -0.131,-0.174 -0.453,-0.586 -0.594,-0.75 -0.391,-0.453 -0.532,-0.515 -0.344,-0.656 0.063,-0.047 0.249,0.008 0.368,0.088 0.228,0.152 0.447,0.315 0.649,0.502 0.449,0.414 0.829,0.845 1.124,1.379 0.578,1.047 0.82,2.01 0.962,3.014 0.161,-0.156 0.337,-0.303 0.506,-0.455 0.722,-0.635 1.728,-1.327 3.144,-2.087 1.216,-0.654 2.002,-1.167 2.846,-2.562 1.05,0.125 1.75,0.56 2.398,1.355 0.736,0.899 1.485,2.914 0.692,4.022 -0.264,0.367 -0.514,0.426 -0.94,0.476 -0.219,0.028 -0.447,0.02 -0.66,0.073 -0.384,0.092 -0.705,0.333 -1.043,0.525 -0.441,0.246 -0.851,0.43 -0.987,0.934 0.234,0.072 0.594,-0.028 0.773,-0.193 0.458,-0.425 0.69,-0.614 1.165,-0.634 -0.498,0.377 -0.689,0.622 -0.799,1.243 -0.06,0.33 -0.381,0.523 -0.636,0.675 -0.043,0.025 -0.085,0.051 -0.125,0.075 -0.151,0.097 -0.366,0.24 -0.561,0.427 -0.016,0.045 -0.025,0.087 -0.04,0.13 0.253,0.124 0.624,0.204 0.915,0.042 0.348,-0.191 0.474,-0.185 0.625,-0.172 -0.012,0.01 -0.026,0.022 -0.038,0.029 -0.28,0.208 -0.524,0.387 -0.733,0.68 -0.139,0.2 -0.362,0.286 -0.615,0.37 L 6.974,-4.461 C 6.826,-4.413 6.67,-4.356 6.524,-4.276 6.511,-4.192 6.5,-4.107 6.485,-4.021 6.914,-3.879 7.29,-4.223 7.68,-4.148 c -0.765,0.362 -0.774,0.972 -1.256,1.071 0.004,0.11 0.008,0.22 0.017,0.327 0.002,0.035 0.007,0.067 0.01,0.101 0.311,0.052 0.527,-0.224 0.801,-0.218 -0.451,0.312 -0.423,0.695 -0.68,0.839 0.063,0.202 0.148,0.393 0.273,0.591 0.176,0.275 0.53,0.304 0.761,0.04 C 7.721,-1.529 7.793,-1.671 7.84,-1.851 8.01,-1.265 7.783,-0.814 7.451,-0.622 7.104,-0.42 6.59,-0.469 6.221,-1.033 5.83,-1.632 5.788,-2.975 5.787,-2.989 L 5.821,-3.993 C 5.828,-4.095 5.912,-5.098 5.501,-5.578 5.367,-5.732 5.155,-5.922 4.953,-5.935 c -0.33,-0.016 -1.075,0.136 -1.138,1.142 -0.044,0.72 0.226,1.416 0.363,2.174 0.131,0.101 0.287,0.174 0.524,0.191 -0.117,0.1 -0.282,0.181 -0.469,0.225 0.009,0.082 0.019,0.166 0.019,0.25 0.002,0.039 0.002,0.072 0.002,0.11 0.153,0.15 0.328,0.268 0.639,0.294 C 4.738,-1.421 4.5,-1.322 4.237,-1.297 4.23,-1.202 4.221,-1.11 4.21,-1.02 c 0.015,0.016 0.026,0.034 0.042,0.046 0.178,0.189 0.359,0.354 0.727,0.381 -0.206,0.173 -0.548,0.294 -0.908,0.256 -0.032,0.113 -0.065,0.214 -0.1,0.305 C 4.033,0.051 4.106,0.131 4.182,0.184 4.4,0.326 4.623,0.357 4.989,0.3 4.746,0.623 4.172,0.896 3.586,0.689 3.442,0.889 3.268,1.052 3.028,1.143 2.941,1.174 2.852,1.2 2.762,1.22 2.665,1.246 2.565,1.27 2.46,1.269 2.28,1.318 2.041,1.35 1.971,1.351 1.113,1.371 0.416,0.893 0,0"
           style="fill:#ffffff;fill-opacity:1;fill-rule:nonzero;stroke:none"
           id="path23451"
           inkscape:connector-curvature="0" />
      </g>
      <g
         style="display:inline"
         id="g23453"
         transform="matrix(1.0902375,0,0,-1.0902375,32.569764,111.9309)">
        <path
           d="M 0,0 -0.029,-1.183 C 0.193,-1.08 0.656,-0.925 1.252,-0.979 0.787,-0.65 0.369,-0.327 0,0"
           style="fill:#ffffff;fill-opacity:1;fill-rule:nonzero;stroke:none"
           id="path23455"
           inkscape:connector-curvature="0" />
      </g>
      <g
         style="display:inline"
         id="g23457"
         transform="matrix(1.0902375,0,0,-1.0902375,35.552003,114.0305)">
        <path
           d="M 0,0 C -0.529,0.3 -1.005,0.596 -1.433,0.888 L -1.527,-0.334 C -1.281,-0.223 -0.672,0.07 0,0"
           style="fill:#ffffff;fill-opacity:1;fill-rule:nonzero;stroke:none"
           id="path23459"
           inkscape:connector-curvature="0" />
      </g>
      <g
         style="display:inline"
         id="g23461"
         transform="matrix(1.0902375,0,0,-1.0902375,37.613203,115.2624)">
        <path
           d="m 0,0 -0.002,0.001 -0.213,-1.875 c 0.319,0.262 0.867,0.391 1.531,0.373 C 0.889,-0.815 0.471,-0.364 0,0"
           style="fill:#ffffff;fill-opacity:1;fill-rule:nonzero;stroke:none"
           id="path23463"
           inkscape:connector-curvature="0" />
      </g>
      <g
         style="display:inline"
         id="g23465"
         transform="matrix(1.0902375,0,0,-1.0902375,37.538733,115.2081)">
        <path
           d="M 0,0 C -0.375,0.28 -0.783,0.514 -1.262,0.77 -1.445,0.869 -1.623,0.968 -1.793,1.064 L -1.857,-0.568 C -1.576,-0.4 -0.747,0.007 0,0"
           style="fill:#ffffff;fill-opacity:1;fill-rule:nonzero;stroke:none"
           id="path23467"
           inkscape:connector-curvature="0" />
      </g>
      <g
         style="display:inline"
         id="g23469"
         transform="matrix(1.0902375,0,0,-1.0902375,28.127918,98.6809)">
        <path
           d="m 0,0 c 0,-1.132 -0.914,-2.048 -2.049,-2.049 -1.133,10e-4 -2.049,0.917 -2.049,2.049 0,1.136 0.916,2.051 2.049,2.052 C -0.914,2.051 0,1.136 0,0"
           style="fill:#b7d9b7;fill-opacity:1;fill-rule:nonzero;stroke:none"
           id="path23471"
           inkscape:connector-curvature="0" />
      </g>
      <g
         style="display:inline"
         id="g23473"
         transform="matrix(1.0902375,0,0,-1.0902375,27.412504,98.6799)">
        <path
           d="m 0,0 c 0,-0.769 -0.623,-1.391 -1.393,-1.391 -0.765,-10e-4 -1.39,0.623 -1.39,1.391 0,0.77 0.625,1.392 1.39,1.393 C -0.623,1.393 0,0.769 0,0"
           style="fill:#ffffff;fill-opacity:1;fill-rule:nonzero;stroke:none"
           id="path23475"
           inkscape:connector-curvature="0" />
      </g>
      <g
         style="display:inline"
         id="g23477"
         transform="matrix(1.0902375,0,0,-1.0902375,26.361629,104.9359)">
        <path
           d="m 0,0 c 0,-1.133 -0.913,-2.049 -2.049,-2.049 -1.133,0 -2.049,0.916 -2.049,2.049 0,1.135 0.916,2.05 2.049,2.051 C -0.915,2.05 0,1.135 0,0"
           style="fill:#b7d9b7;fill-opacity:1;fill-rule:nonzero;stroke:none"
           id="path23479"
           inkscape:connector-curvature="0" />
      </g>
      <g
         style="display:inline"
         id="g23481"
         transform="matrix(1.0902375,0,0,-1.0902375,25.645116,104.9371)">
        <path
           d="m 0,0 c 0,-0.768 -0.623,-1.39 -1.392,-1.39 -0.766,-0.001 -1.39,0.623 -1.39,1.391 0,0.77 0.624,1.393 1.39,1.393 C -0.623,1.393 0,0.77 0,0"
           style="fill:#ffffff;fill-opacity:1;fill-rule:nonzero;stroke:none"
           id="path23483"
           inkscape:connector-curvature="0" />
      </g>
      <g
         style="display:inline"
         id="g23485"
         transform="matrix(1.0902375,0,0,-1.0902375,26.361629,111.1921)">
        <path
           d="m 0,0 c 0,-1.133 -0.913,-2.049 -2.049,-2.049 -1.133,0 -2.049,0.916 -2.049,2.049 0,1.135 0.916,2.05 2.048,2.05 C -0.915,2.051 0,1.135 0,0"
           style="fill:#b7d9b7;fill-opacity:1;fill-rule:nonzero;stroke:none"
           id="path23487"
           inkscape:connector-curvature="0" />
      </g>
      <g
         style="display:inline"
         id="g23489"
         transform="matrix(1.0902375,0,0,-1.0902375,25.645116,111.1921)">
        <path
           d="m 0,0 c 0,-0.768 -0.623,-1.392 -1.392,-1.391 -0.766,0 -1.39,0.623 -1.39,1.391 0,0.77 0.624,1.393 1.39,1.392 C -0.623,1.393 0,0.769 0,0"
           style="fill:#ffffff;fill-opacity:1;fill-rule:nonzero;stroke:none"
           id="path23491"
           inkscape:connector-curvature="0" />
      </g>
      <g
         style="display:inline"
         id="g23493"
         transform="matrix(1.0902375,0,0,-1.0902375,28.127918,117.4482)">
        <path
           d="m 0,0 c 0,-1.133 -0.914,-2.049 -2.049,-2.049 -1.133,0 -2.049,0.916 -2.049,2.049 0,1.135 0.916,2.05 2.049,2.051 C -0.914,2.05 0,1.135 0,0"
           style="fill:#b7d9b7;fill-opacity:1;fill-rule:nonzero;stroke:none"
           id="path23495"
           inkscape:connector-curvature="0" />
      </g>
      <g
         style="display:inline"
         id="g23497"
         transform="matrix(1.0902375,0,0,-1.0902375,27.412504,117.4482)">
        <path
           d="m 0,0 c 0,-0.768 -0.623,-1.391 -1.393,-1.391 -0.765,-10e-4 -1.39,0.623 -1.39,1.391 0,0.77 0.625,1.393 1.39,1.392 C -0.623,1.392 0,0.77 0,0"
           style="fill:#ffffff;fill-opacity:1;fill-rule:nonzero;stroke:none"
           id="path23499"
           inkscape:connector-curvature="0" />
      </g>
    </g>
  </g>
</svg>
