<?xml version="1.0" encoding="UTF-8" standalone="no"?>
<!-- Created with Inkscape (http://www.inkscape.org/) -->

<svg
   xmlns:dc="http://purl.org/dc/elements/1.1/"
   xmlns:cc="http://creativecommons.org/ns#"
   xmlns:rdf="http://www.w3.org/1999/02/22-rdf-syntax-ns#"
   xmlns:svg="http://www.w3.org/2000/svg"
   xmlns="http://www.w3.org/2000/svg"
   xmlns:sodipodi="http://sodipodi.sourceforge.net/DTD/sodipodi-0.dtd"
   xmlns:inkscape="http://www.inkscape.org/namespaces/inkscape"
   width="100mm"
   height="50mm"
   viewBox="0 0 100 50"
   version="1.1"
   id="svg1216"
   inkscape:version="0.92.3 (2405546, 2018-03-11)"
   sodipodi:docname="fast.svg"
   inkscape:export-filename="/home/sjbrown/work/1kfa/images/fast.png"
   inkscape:export-xdpi="69.881699"
   inkscape:export-ydpi="69.881699">
  <defs
     id="defs1210" />
  <sodipodi:namedview
     id="base"
     pagecolor="#ffffff"
     bordercolor="#666666"
     borderopacity="1.0"
     inkscape:pageopacity="0.0"
     inkscape:pageshadow="2"
     inkscape:zoom="1.4"
     inkscape:cx="165.90228"
     inkscape:cy="124.98116"
     inkscape:document-units="mm"
     inkscape:current-layer="layer1"
     showgrid="false"
     inkscape:window-width="1920"
     inkscape:window-height="1025"
     inkscape:window-x="0"
     inkscape:window-y="27"
     inkscape:window-maximized="1" />
  <metadata
     id="metadata1213">
    <rdf:RDF>
      <cc:Work
         rdf:about="">
        <dc:format>image/svg+xml</dc:format>
        <dc:type
           rdf:resource="http://purl.org/dc/dcmitype/StillImage" />
        <dc:title />
      </cc:Work>
    </rdf:RDF>
  </metadata>
  <g
     inkscape:label="Layer 1"
     inkscape:groupmode="layer"
     id="layer1"
     transform="translate(0,-247)">
    <g
       transform="matrix(0.26458333,0,0,0.26458333,-4.7842704,257.85284)"
       id="g22"
       inkscape:export-xdpi="69.881699"
       inkscape:export-ydpi="69.881699">
      <g
         id="g12">
        <path
           inkscape:connector-curvature="0"
           class="st0"
           d="m 180.09,63.99 v -0.7 l 0.25,-0.03 c 1.05,-0.13 1.39,-1.17 1.39,-2.54 v -14.3 c 0,-1.46 -0.35,-2.38 -1.43,-2.54 l -0.22,-0.03 v -0.7 h 10.65 c 0.82,0 1.17,0 1.65,-0.51 l 1.11,6.88 -0.32,0.09 c -0.79,-3.01 -3.17,-4.88 -5.52,-4.88 -2.28,0 -2.38,1.17 -2.38,2.12 v 2.12 h 1.49 c 1.49,0 2.47,-0.13 2.57,-2.35 l 0.44,-0.06 0.79,7.64 -0.41,0.06 c -0.35,-2.5 -1.68,-3.46 -3.8,-3.46 h -1.08 v 9.89 c 0,1.36 0.38,2.38 1.43,2.54 l 0.22,0.03 v 0.7 h -6.83 z"
           id="path4" />
        <path
           inkscape:connector-curvature="0"
           class="st0"
           d="m 203.8,63.99 c -0.57,-0.7 -0.86,-1.27 -1.01,-2.22 -0.98,1.65 -2.57,2.54 -4.53,2.54 -2.28,0 -3.68,-1.62 -3.68,-3.8 0,-3.2 2.76,-5.42 8.21,-6.85 V 52.7 c 0,-1.87 -0.41,-2.88 -2.25,-2.88 -1.77,0 -3.71,1.11 -4.56,4.12 l -0.28,-0.06 0.44,-5.29 c 0.13,0.19 0.35,0.44 0.7,0.44 0.7,0 2.12,-0.98 4.56,-0.98 3.99,0 4.63,2.16 4.63,5.23 v 5.1 c 0,3.9 0.41,4.22 1.71,4.85 l 0.13,0.06 v 0.7 z m -1.01,-8.72 c -2.82,0.73 -4.76,2.38 -4.76,4.75 0,1.36 0.6,2.38 1.81,2.38 1.27,0 2.95,-1.55 2.95,-5.55 z"
           id="path6" />
        <path
           inkscape:connector-curvature="0"
           class="st0"
           d="m 210.26,58.22 0.29,-0.06 c 0.67,3.01 2.5,4.57 4.66,4.57 2.03,0 3.17,-1.52 3.17,-2.76 0,-4.06 -7.83,-2.06 -7.83,-7.39 0,-2.73 2.57,-4.53 5.39,-4.53 1.36,0 2.47,0.48 3.11,0.48 0.35,0 0.63,-0.29 0.76,-0.38 l 0.29,5.01 h -0.32 c -0.35,-2.38 -2.06,-3.61 -3.68,-3.61 -1.55,0 -2.47,0.89 -2.47,2.06 0,2.95 7.83,1.27 7.83,7.29 0,2.66 -2.25,5.42 -6.28,5.42 -1.87,0 -2.95,-0.67 -3.55,-0.67 -0.44,0 -0.7,0.32 -0.89,0.57 z"
           id="path8" />
        <path
           inkscape:connector-curvature="0"
           class="st0"
           d="m 232.16,63.7 c -1.11,0.41 -2.28,0.6 -3.07,0.6 -3.14,0 -3.74,-1.65 -3.74,-4.5 v -9.73 h -2.09 v -0.73 l 0.29,-0.03 c 1.3,-0.16 2.35,-1.49 2.35,-3.9 0,-0.51 -0.09,-1.08 -0.22,-1.49 1.2,-0.29 2.03,-0.92 2.88,-1.58 v 6.02 h 2.41 c 0.57,0 1.24,-0.09 1.68,-0.44 l -0.73,2.47 c -0.19,-0.13 -0.35,-0.32 -0.67,-0.32 h -2.69 v 9.13 c 0,1.65 0.22,3.04 1.84,3.04 0.73,0 1.97,-0.67 2.76,-2.5 l 0.28,0.1 z"
           id="path10" />
      </g>
      <g
         id="g16">
        <path
           inkscape:connector-curvature="0"
           class="st0"
           d="m 241.77,52.63 14.5,2.38 -14.5,2.38 c -1.31,0.06 -2.42,-0.96 -2.48,-2.27 -0.06,-1.31 0.96,-2.42 2.27,-2.48 0.07,-0.02 0.15,-0.02 0.21,-0.01 z"
           id="path14"
           sodipodi:nodetypes="cccscc" />
      </g>
      <g
         id="g20">
        <path
           inkscape:connector-curvature="0"
           class="st0"
           d="M 170.86,57.38 156.35,55 l 14.5,-2.38 c 1.31,-0.06 2.42,0.96 2.48,2.27 0.06,1.31 -0.96,2.42 -2.27,2.48 -0.06,0.01 -0.14,0.01 -0.2,0.01 z"
           id="path18"
           sodipodi:nodetypes="cccscc" />
      </g>
    </g>
  </g>
</svg>
